<svg width="34" height="34" viewBox="0 0 34 34" fill="none" xmlns="http://www.w3.org/2000/svg">
<path d="M19.0203 4.54923V1" stroke="#00CD6B" stroke-width="1.5" stroke-miterlimit="10" stroke-linecap="round" stroke-linejoin="round"/>
<path d="M29.4697 15.0684H33.0002" stroke="#00CD6B" stroke-width="1.5" stroke-miterlimit="10" stroke-linecap="round" stroke-linejoin="round"/>
<path d="M26.4131 22.5059L28.9055 25.0151" stroke="#00CD6B" stroke-width="1.5" stroke-miterlimit="10" stroke-linecap="round" stroke-linejoin="round"/>
<path d="M9.14014 5.11694L11.6326 7.63135" stroke="#00CD6B" stroke-width="1.5" stroke-miterlimit="10" stroke-linecap="round" stroke-linejoin="round"/>
<path d="M28.9055 5.11719L26.4131 7.63159" stroke="#00CD6B" stroke-width="1.5" stroke-miterlimit="10" stroke-linecap="round" stroke-linejoin="round"/>
<path d="M24.453 2.10327L23.083 5.37638" stroke="#00CD6B" stroke-width="1.5" stroke-miterlimit="10" stroke-linecap="round" stroke-linejoin="round"/>
<path d="M31.9672 9.76953L28.7002 11.1064" stroke="#00CD6B" stroke-width="1.5" stroke-miterlimit="10" stroke-linecap="round" stroke-linejoin="round"/>
<path d="M22.9565 24.8088L24.2844 28.0977" stroke="#00CD6B" stroke-width="1.5" stroke-miterlimit="10" stroke-linecap="round" stroke-linejoin="round"/>
<path d="M13.7617 2.03516L15.0896 5.32432" stroke="#00CD6B" stroke-width="1.5" stroke-miterlimit="10" stroke-linecap="round" stroke-linejoin="round"/>
<path d="M28.6475 19.1543L31.8987 20.5388" stroke="#00CD6B" stroke-width="1.5" stroke-miterlimit="10" stroke-linecap="round" stroke-linejoin="round"/>
<path d="M16.8441 25.0955C16.8441 25.0955 16.2486 24.3103 15.1473 24.6764L12.4283 25.5835C12.4283 25.5835 10.3417 23.1698 9.2509 21.4139C9.24563 21.4086 9.24037 21.4033 9.2351 21.3927C9.22983 21.3873 9.22455 21.3767 9.21928 21.3714C7.99152 19.7163 6.50554 16.8835 6.50554 16.8835L8.32348 14.6605C9.06119 13.7533 8.54478 12.9154 8.54478 12.9154L6.58459 8.29454C6.22627 7.52002 5.62029 7.5361 5.62029 7.5361C4.86676 7.43 2.27952 9.1009 2.27952 9.1009C0.920017 9.92316 1.00958 10.8887 1.00958 10.8887C0.756648 16.6181 5.59394 23.1062 5.95226 23.6579C6.44758 24.3369 10.5946 31.074 15.9957 32.9042C15.9957 32.9042 16.8546 33.3393 18.1087 32.3579C18.1087 32.3579 20.5959 30.5277 20.7645 29.785C20.7645 29.785 21.0016 29.2225 20.4114 28.6072L16.8441 25.0955Z" stroke="#00CD6B" stroke-width="1.5" stroke-miterlimit="10" stroke-linecap="square" stroke-linejoin="round"/>
<path d="M22.5087 18.9256V10.9099L19.1521 16.3581H24.6007" stroke="#00CD6B" stroke-width="1.5" stroke-miterlimit="10" stroke-linejoin="round"/>
<path d="M13.7773 13.1955V12.7764C13.7773 11.7526 14.6046 10.9197 15.6216 10.9197C16.6386 10.9197 17.4659 11.7526 17.4659 12.7764C17.4659 13.5244 17.0233 14.1822 16.4858 14.6438C15.7586 15.2644 14.0355 16.681 13.8458 18.2194H18.0192" stroke="#00CD6B" stroke-width="1.5" stroke-miterlimit="10"/>
</svg>
