<svg width="43" height="27" viewBox="0 0 43 27" fill="none" xmlns="http://www.w3.org/2000/svg">
<path d="M11.0922 15.4495C11.0922 15.7243 10.8685 15.9482 10.5937 15.9482C10.3189 15.9482 10.0952 15.7243 10.0952 15.4495C10.0952 15.1747 10.3189 14.9512 10.5937 14.9512C10.8685 14.9512 11.0922 15.1747 11.0922 15.4495Z" fill="#00CD6B" stroke="#00CD6B" stroke-width="1.5" stroke-miterlimit="10"/>
<path d="M29.306 15.4495C29.306 15.7243 29.0824 15.9482 28.8076 15.9482C28.5328 15.9482 28.3091 15.7243 28.3091 15.4495C28.3091 15.1747 28.5328 14.9512 28.8076 14.9512C29.0824 14.9512 29.306 15.1747 29.306 15.4495Z" fill="#00CD6B" stroke="#00CD6B" stroke-width="1.5" stroke-miterlimit="10"/>
<path d="M37.9273 5.10938H1.48047V25.79H37.9273V5.10938Z" stroke="#00CD6B" stroke-width="1.5" stroke-miterlimit="10"/>
<path d="M5.34058 1H42.1389V22.3774" stroke="#00CD6B" stroke-width="1.5" stroke-miterlimit="10"/>
<path d="M34.0993 11.5645C32.655 11.5645 31.4918 10.395 31.4918 8.95703H7.91606C7.91606 10.4014 6.74653 11.5645 5.30859 11.5645V19.3356C6.74653 19.3356 7.91606 20.5051 7.91606 21.9431H31.4918C31.4918 20.5051 32.6613 19.3356 34.0993 19.3356V11.5645Z" stroke="#00CD6B" stroke-width="1.5" stroke-miterlimit="10"/>
<path d="M22.9026 15.4503C22.9026 17.3548 21.4711 18.895 19.7008 18.895C17.9306 18.895 16.499 17.3548 16.499 15.4503C16.499 13.5458 17.9306 12.0059 19.7008 12.0059C21.4711 12.0059 22.9026 13.5522 22.9026 15.4503Z" stroke="#00CD6B" stroke-width="1.5" stroke-miterlimit="10"/>
</svg>
