<svg width="46" height="23" viewBox="0 0 46 23" fill="none" xmlns="http://www.w3.org/2000/svg">
<path d="M16.1107 18.8979H13.9136C12.7736 18.8979 11.8408 17.9722 11.8408 16.8407V14.5469" stroke="#00CD6B" stroke-width="1.5" stroke-miterlimit="10" stroke-linecap="round" stroke-linejoin="round"/>
<path d="M32.5635 18.8984H24.5366" stroke="#00CD6B" stroke-width="1.5" stroke-miterlimit="10" stroke-linejoin="round"/>
<path d="M11.5403 1.00069H32.2836C32.2836 1.00069 38.9113 0.702234 45.0001 12.5469V16.8364C45.0001 17.9679 44.0674 18.8937 42.9274 18.8937H40.9997" stroke="#00CD6B" stroke-width="1.5" stroke-miterlimit="10" stroke-linecap="round" stroke-linejoin="round"/>
<path d="M40.9377 18.9134C40.9377 20.6209 39.5438 21.9993 37.8233 21.9993C36.1029 21.9993 34.709 20.6158 34.709 18.9134C34.709 17.2059 36.1029 15.8223 37.8233 15.8223C39.5438 15.8223 40.9377 17.2059 40.9377 18.9134Z" stroke="#00CD6B" stroke-width="1.5" stroke-miterlimit="10"/>
<path d="M22.4065 18.9134C22.4065 20.6209 21.0125 21.9993 19.2921 21.9993C17.5717 21.9993 16.1777 20.6158 16.1777 18.9134C16.1777 17.2059 17.5717 15.8223 19.2921 15.8223C21.0125 15.8223 22.4065 17.2059 22.4065 18.9134Z" stroke="#00CD6B" stroke-width="1.5" stroke-miterlimit="10"/>
<path d="M32.7139 4V7.72349C32.7139 7.72349 32.7139 10.2797 35.1649 10.2797H40.4505" stroke="#00CD6B" stroke-width="1.5" stroke-miterlimit="10" stroke-linecap="round" stroke-linejoin="round"/>
<path d="M17.7116 4.36914H4.07275" stroke="#00CD6B" stroke-width="1.5" stroke-miterlimit="10" stroke-linecap="round" stroke-linejoin="round"/>
<path d="M14.2607 14.3987H7.36865" stroke="#00CD6B" stroke-width="1.5" stroke-miterlimit="10" stroke-linecap="round" stroke-linejoin="round"/>
<path d="M17.7118 11.0547H1" stroke="#00CD6B" stroke-width="1.5" stroke-miterlimit="10" stroke-linecap="round" stroke-linejoin="round"/>
<path d="M21.1685 7.71289H8.04785" stroke="#00CD6B" stroke-width="1.5" stroke-miterlimit="10" stroke-linecap="round" stroke-linejoin="round"/>
</svg>
