<svg width="80" height="80" viewBox="0 0 80 80" fill="none" xmlns="http://www.w3.org/2000/svg">
<path fill-rule="evenodd" clip-rule="evenodd" d="M69.3313 7.17896C69.1729 7.29501 68.695 7.49953 68.2693 7.63333C67.8438 7.76728 67.2565 8.01958 66.9645 8.19408C66.6725 8.36859 66.2629 8.56286 66.0543 8.62579C65.8457 8.68873 65.4361 8.88358 65.144 9.05881C64.852 9.23403 64.4424 9.42888 64.2338 9.49182C64.0252 9.55475 63.6156 9.7496 63.3235 9.92483C63.0315 10.1001 62.6219 10.2949 62.4133 10.3578C62.2047 10.4208 61.7951 10.6156 61.503 10.7908C61.211 10.9661 60.8014 11.1609 60.5928 11.2239C60.3842 11.2868 59.9746 11.4816 59.6826 11.6569C59.3905 11.8321 58.9809 12.0269 58.7723 12.0899C58.5637 12.1528 58.1541 12.3477 57.8621 12.5229C57.57 12.6981 57.1604 12.8927 56.9518 12.9552C56.44 13.1086 54.3849 14.154 53.9351 14.4899C53.7361 14.6386 53.5064 14.7601 53.4245 14.7601C53.3426 14.7601 52.9501 14.9874 52.5523 15.2653C52.1546 15.5431 51.7862 15.7705 51.734 15.7705C51.6381 15.7705 50.4474 16.5414 49.5798 17.165C49.3216 17.3507 49.0628 17.5025 49.0047 17.5025C48.9466 17.5025 48.0996 18.0797 47.1226 18.7851C45.2244 20.1557 39.8943 25.149 39.453 25.9702C39.318 26.2215 38.8309 26.8381 38.3705 27.3402C37.91 27.8425 37.5333 28.3115 37.5333 28.3823C37.5333 28.4532 37.0896 29.0782 36.5472 29.7711C36.0049 30.4641 35.5611 31.0934 35.5611 31.1693C35.5611 31.2452 35.3583 31.5625 35.1103 31.8744C34.8622 32.1862 34.6574 32.5135 34.6551 32.6016C34.6529 32.6898 34.4886 32.9894 34.2901 33.2675C34.0919 33.5457 33.8425 34.0258 33.736 34.3342C33.6295 34.6426 33.3926 35.1224 33.2097 35.4003C33.0267 35.6781 32.789 36.1653 32.6813 36.4828C32.5737 36.8003 32.3243 37.3518 32.1271 37.7085C31.9299 38.0652 31.7685 38.4142 31.7685 38.4843C31.7685 38.5545 31.6049 38.9771 31.4051 39.4237C31.2053 39.8702 30.955 40.6253 30.8487 41.1016C30.7423 41.5779 30.5304 42.2086 30.3776 42.5031C30.2247 42.7977 30.0997 43.2647 30.0997 43.541C30.0997 43.8174 30.0314 44.0836 29.948 44.1326C29.8645 44.1817 29.7963 44.5996 29.7963 45.0612C29.7963 45.5229 29.6819 46.1848 29.5422 46.5321C29.4023 46.8795 29.2254 47.7483 29.1488 48.4627C28.9802 50.0353 28.8716 61.0554 29.0308 60.4427C29.1106 60.1353 29.1456 60.3313 29.1515 61.1183C29.1571 61.8745 29.2611 62.4843 29.478 63.0363C29.6531 63.4813 29.7963 64.0341 29.7963 64.2644C29.7963 64.495 29.8645 64.7237 29.948 64.7728C30.0314 64.8219 30.0997 65.0893 30.0997 65.3672C30.0997 65.7059 30.1561 65.8392 30.2711 65.7716C30.3761 65.7098 30.4127 65.7485 30.3656 65.8714C30.3235 65.9816 30.4407 66.3641 30.6263 66.7213C30.8118 67.0786 31.1101 67.6631 31.2894 68.0204C31.7365 68.9115 31.8932 69.1292 32.6787 69.9491C34.0614 71.3925 35.4334 72.3834 35.8527 72.2412C35.9844 72.1966 36.0419 72.2128 35.9808 72.2772C35.8268 72.4387 36.3238 72.7732 36.7258 72.7789C37.2776 72.7865 37.685 72.134 37.685 71.2427C37.685 70.7475 37.7958 70.256 37.9885 69.8968C38.1582 69.5801 38.2919 69.046 38.2919 68.6842C38.2919 68.3284 38.3601 67.9973 38.4436 67.9482C38.527 67.8991 38.5957 67.6517 38.5962 67.3984C38.5968 67.1451 38.6962 66.7573 38.8172 66.5365C38.9383 66.3158 38.9944 66.029 38.9422 65.8994C38.8787 65.7417 38.906 65.6983 39.0246 65.768C39.1519 65.8429 39.2021 65.6479 39.2021 65.0785C39.2021 64.6419 39.2704 64.2445 39.3538 64.1955C39.4373 64.1464 39.506 63.9639 39.5064 63.79C39.507 63.6161 39.609 63.2884 39.7332 63.0618C39.8575 62.8352 39.9212 62.5917 39.8751 62.5206C39.8288 62.4494 39.8634 62.3912 39.9517 62.3912C40.04 62.3912 40.1124 62.2172 40.1124 62.0046C40.1124 61.5665 40.3466 60.7793 40.6529 60.1878C40.7665 59.9683 40.8207 59.6923 40.7732 59.5744C40.7255 59.4566 40.7623 59.3602 40.8547 59.3602C40.947 59.3602 41.0226 59.2186 41.0226 59.0457C41.0226 58.6356 41.2847 57.8455 41.6604 57.123C41.8254 56.8054 41.9714 56.3733 41.9846 56.1625C41.9979 55.9518 42.06 55.8095 42.1225 55.8463C42.1851 55.8831 42.2363 55.7444 42.2363 55.538C42.2363 55.3317 42.3605 54.922 42.5125 54.6274C42.6644 54.3329 42.8754 53.7996 42.9814 53.4424C43.1501 52.874 43.5069 51.9825 44.3102 50.1226C44.4302 49.8448 44.627 49.4451 44.7476 49.2344C44.8682 49.0236 44.967 48.7474 44.967 48.6206C44.967 48.4938 45.1654 48.0166 45.4081 47.5603C45.6507 47.1041 46.1674 46.0812 46.5564 45.2873C46.9454 44.4935 47.3262 43.7465 47.4026 43.6275C47.4789 43.5084 47.6508 43.1836 47.7845 42.9058C48.1789 42.0859 48.3073 41.8397 48.5007 41.5317C49.305 40.2509 49.5182 39.875 49.5182 39.7379C49.5182 39.6513 49.7042 39.3056 49.9316 38.9697C50.159 38.634 50.4618 38.1178 50.6046 37.823C50.7472 37.5281 51.1616 36.8786 51.5253 36.3796C51.8891 35.8806 52.3081 35.2451 52.4565 34.9673C52.803 34.3182 52.9877 34.0265 53.5415 33.2546C53.7901 32.908 54.1301 32.4113 54.297 32.151C55.4979 30.277 55.7605 30.0598 56.8252 30.0598C57.3402 30.0598 57.5405 30.1528 58.0317 30.6201C58.5513 31.1145 58.6206 31.2617 58.6206 31.8692C58.6206 32.6045 58.3119 33.2104 56.7622 35.5157C56.5328 35.8571 56.345 36.1732 56.345 36.2181C56.345 36.263 56.1061 36.6095 55.814 36.988C55.522 37.3664 55.2831 37.7371 55.2831 37.8116C55.2831 37.886 55.0802 38.202 54.8322 38.5139C54.5841 38.8257 54.3793 39.1494 54.3771 39.2333C54.3748 39.317 54.2081 39.5982 54.0066 39.8578C53.8053 40.1175 53.3553 40.8933 53.0067 41.5818C52.6581 42.2703 52.3072 42.9521 52.2268 43.0967C52.1465 43.2415 51.9359 43.6312 51.7589 43.9628C51.5819 44.2944 51.3065 44.7461 51.1469 44.9668C50.9873 45.1873 50.7881 45.6042 50.7042 45.893C50.6205 46.1819 50.3875 46.6659 50.1868 46.9686C49.9859 47.2712 49.8216 47.5693 49.8216 47.6311C49.8216 47.6929 49.6605 48.0351 49.4636 48.3917C49.0494 49.1417 48.0764 51.3252 47.9206 51.8547C47.8622 52.0531 47.4554 53.0274 47.017 54.0197C46.5786 55.012 46.1357 56.1162 46.033 56.4734C45.9305 56.8307 45.717 57.4152 45.5588 57.7725C45.4007 58.1297 45.1744 58.7882 45.056 59.2356C44.9377 59.6831 44.7327 60.2481 44.6005 60.4913C44.4683 60.7345 44.3601 61.0952 44.3601 61.293C44.3601 61.4907 44.2919 61.6927 44.2084 61.7417C44.125 61.7908 44.0567 62.0063 44.0567 62.2205C44.0567 62.4348 43.8519 63.1611 43.6016 63.8346C43.3513 64.5081 43.1465 65.2048 43.1465 65.3829C43.1465 65.7964 42.9003 66.8427 42.5427 67.9482C42.1419 69.1871 42.036 69.9206 42.0214 71.5566L42.0087 73L42.4638 72.9664C43.5887 72.8829 44.3601 72.7439 44.3601 72.6246C44.3601 72.5533 44.569 72.4948 44.8242 72.4948C45.0794 72.4948 45.2505 72.4366 45.2044 72.3656C45.1581 72.2945 45.376 72.206 45.6885 72.1688C46.4655 72.0764 47.9356 71.5389 47.6778 71.4415C47.5636 71.3983 47.6804 71.3577 47.9374 71.3515C48.5409 71.3368 50.1666 70.7094 50.0141 70.55C49.9499 70.4831 50.0199 70.4699 50.1695 70.5212C50.3359 70.578 50.6734 70.4748 51.0388 70.2554C51.3673 70.0581 51.7097 69.8968 51.7997 69.8968C51.8898 69.8968 51.9158 69.8234 51.8575 69.7337C51.7929 69.6342 51.8337 69.5981 51.9623 69.6413C52.1753 69.7127 53.3034 69.1762 54.318 68.5212C54.6218 68.3252 54.9331 68.1647 55.0098 68.1647C55.0864 68.1647 55.1006 68.0897 55.0411 67.998C54.9736 67.8942 54.9994 67.8707 55.1097 67.9355C55.207 67.9927 55.4736 67.9003 55.7021 67.73C55.9305 67.5598 56.9025 66.8648 57.8621 66.1854C59.5312 65.0039 63.7515 61.1693 65.0339 59.6691C65.9168 58.6362 66.419 58.0118 66.5852 57.7398C66.6687 57.6034 67.0954 57.0003 67.5334 56.3995C67.9714 55.7988 68.3299 55.276 68.3299 55.2379C68.3299 55.1998 68.5152 54.894 68.7421 54.5581C69.5836 53.3115 69.9389 52.6726 70.4064 51.566C70.5238 51.2881 70.6839 50.9634 70.7622 50.8443C71.0551 50.3983 71.364 49.6449 71.364 49.3761C71.364 49.2231 71.464 48.9141 71.586 48.6895C71.9566 48.0077 72.2697 47.0445 72.272 46.5792C72.2732 46.337 72.339 46.0772 72.4181 46.0018C72.6277 45.8022 73.0432 44.1934 72.9302 44.0195C72.8774 43.9381 72.9072 43.9144 72.9964 43.9669C73.102 44.029 73.1874 43.7474 73.2412 43.1592C73.4004 41.4198 73.6175 39.795 73.8051 38.9365C74.1865 37.1925 73.9681 27.6067 73.4926 25.2245C73.3976 24.7482 73.2602 23.5791 73.1872 22.6265C73.0495 20.8285 72.924 19.8939 72.7708 19.5232C72.7215 19.4041 72.6913 19.2602 72.7036 19.2035C72.7159 19.1466 72.6487 18.9193 72.5541 18.6983C72.4596 18.4772 72.3264 17.7767 72.258 17.1417C72.0905 15.5869 71.8853 14.3746 71.6715 13.6776C71.5741 13.36 71.4341 12.6456 71.3604 12.0899C71.0906 10.0595 70.9439 9.31904 70.7437 8.9761C70.6311 8.78341 70.5028 8.26856 70.4585 7.83194C70.3856 7.11444 70.3415 7.03477 69.9986 7.00287C69.79 6.98367 69.4898 7.06277 69.3313 7.17896ZM73.5915 26.4785C73.5431 26.5936 73.5072 26.5594 73.4999 26.3912C73.4934 26.2391 73.5292 26.1539 73.5795 26.2018C73.6299 26.2497 73.6354 26.3743 73.5915 26.4785ZM73.8917 30.3846C73.8497 30.4839 73.8153 30.4026 73.8153 30.2041C73.8153 30.0057 73.8497 29.9246 73.8917 30.0237C73.9339 30.123 73.9339 30.2854 73.8917 30.3846ZM58.8759 31.9633C58.8275 32.0784 58.7916 32.0442 58.7843 31.876C58.7778 31.7239 58.8136 31.6387 58.864 31.6866C58.9143 31.7345 58.9198 31.8591 58.8759 31.9633ZM73.8958 37.8179C73.8578 37.9568 73.8265 37.8432 73.8265 37.5653C73.8265 37.2875 73.8578 37.1739 73.8958 37.3127C73.9341 37.4516 73.9341 37.6791 73.8958 37.8179Z" fill="#79C142"/>
<path fill-rule="evenodd" clip-rule="evenodd" d="M30.1675 8.2535C30.1041 8.31397 29.388 8.41977 28.5764 8.48891C25.7639 8.72808 25.4474 8.77268 25.1222 8.97547C24.9426 9.08747 24.4192 9.27237 23.9593 9.3864C23.4994 9.50028 22.8916 9.71953 22.6087 9.87353C22.3258 10.0275 21.8212 10.2355 21.4874 10.3358C21.1537 10.4362 20.6417 10.661 20.3496 10.8357C20.0576 11.0105 19.648 11.2027 19.4394 11.2631C19.2308 11.3235 18.7188 11.6128 18.3016 11.9059C17.8844 12.1991 17.1334 12.6745 16.6328 12.9625C15.2629 13.7504 10.1853 18.7713 10.1853 19.338C10.1853 19.3775 10.0211 19.6399 9.82056 19.9211C9.28974 20.6655 7.54238 24.1486 7.31922 24.9075C7.21424 25.2647 7.01899 25.7519 6.88533 25.99C6.75168 26.2282 6.58617 26.7964 6.51745 27.253C6.44887 27.7095 6.31613 28.4889 6.22283 28.985C6.02819 30.0193 5.9047 36.657 6.09464 35.8771C6.21084 35.4001 6.21722 35.4121 6.20963 36.0936C6.19416 37.5052 6.2427 38.0582 6.37545 37.9801C6.44948 37.9365 6.50698 37.9814 6.50334 38.0798C6.4736 38.8653 6.56599 39.5321 6.68068 39.36C6.77277 39.2217 6.838 39.3304 6.89732 39.7208C7.0554 40.7606 7.18465 41.2148 7.30268 41.1455C7.36731 41.1074 7.41722 41.1568 7.41358 41.2552C7.39188 41.8274 7.46895 42.0921 7.62976 41.9977C7.72655 41.9407 7.76402 41.9574 7.71365 42.0351C7.66344 42.1123 7.78738 42.4958 7.98885 42.8873C8.19047 43.2788 8.3575 43.6775 8.36008 43.7732C8.36266 43.8689 8.56959 44.2778 8.8199 44.6816C9.07022 45.0855 9.27502 45.4422 9.27502 45.4741C9.27502 45.506 9.71983 46.1689 10.2634 46.9472C11.4402 48.6322 16.0022 53.1204 16.3931 52.9777C16.5198 52.9315 16.5739 52.9409 16.5131 52.9986C16.3675 53.1372 17.1779 53.6393 17.3674 53.5279C17.4481 53.4804 17.4722 53.5061 17.4209 53.5849C17.3698 53.6637 17.5893 53.8681 17.9088 54.039C18.2283 54.2098 18.5765 54.4491 18.6825 54.5707C18.8043 54.7103 18.9932 54.7574 19.1953 54.6983C19.3713 54.6471 19.4659 54.6546 19.4056 54.7154C19.3022 54.8191 20.1159 55.3206 20.9565 55.671C21.1651 55.7579 21.5982 55.9515 21.919 56.101C22.2398 56.2505 22.7518 56.3739 23.0568 56.3751C23.4266 56.3767 23.5426 56.4188 23.4049 56.5018C23.2624 56.5877 23.3765 56.646 23.7735 56.6902C24.1925 56.7367 24.4234 56.6828 24.6247 56.4913C24.9274 56.2033 24.9869 55.9399 24.7491 55.9399C24.573 55.9399 24.539 52.4686 24.7044 51.3774C24.8041 50.7201 24.8185 50.7014 24.914 51.1046C24.9914 51.4314 25.136 48.1501 25.0935 47.0287C25.0899 46.9303 25.1474 46.8854 25.2214 46.929C25.2954 46.9724 25.357 46.6632 25.3582 46.2418C25.3595 45.8203 25.4652 45.1891 25.5934 44.839C25.756 44.3943 25.7768 44.1733 25.6618 44.1057C25.5714 44.0526 25.541 43.9009 25.5943 43.7689C25.6475 43.6367 25.7457 43.5607 25.8123 43.5998C25.879 43.6391 25.9693 43.3627 26.013 42.9855C26.1732 41.6028 26.3955 40.6473 26.6314 40.327C26.7643 40.1464 26.873 39.8791 26.873 39.7331C26.873 39.366 27.3342 38.031 27.5804 37.6852C27.6921 37.5288 27.7854 37.3014 27.788 37.18C27.7906 37.0588 27.9559 36.643 28.1551 36.2557C28.3545 35.8686 28.4773 35.452 28.428 35.3299C28.3693 35.1844 28.3997 35.144 28.516 35.2124C28.6298 35.2793 28.6935 35.2091 28.6935 35.0167C28.6935 34.8517 28.8666 34.4557 29.0782 34.1368C29.2899 33.8179 29.4158 33.4844 29.3583 33.3957C29.2982 33.3034 29.3216 33.2746 29.4128 33.3281C29.6069 33.4423 29.7957 33.0296 29.6558 32.797C29.6004 32.7049 29.6127 32.6793 29.6831 32.7402C29.7535 32.801 29.8997 32.6711 30.0079 32.4516C30.1162 32.2319 30.2914 31.9247 30.3973 31.769C31.0342 30.832 31.271 30.3626 31.1788 30.2203C31.1192 30.1287 31.1421 30.099 31.2314 30.1517C31.3182 30.2026 31.4761 30.0342 31.5828 29.777C31.7835 29.2932 32.4076 28.4087 33.1309 27.5829C33.3603 27.321 33.5497 27.0502 33.5516 26.9813C33.5536 26.9125 33.7754 26.6133 34.0447 26.3167C34.314 26.0199 34.739 25.5147 34.9894 25.1939C36.7545 22.9318 40.4334 19.3035 41.9679 18.3113C42.4685 17.9877 43.0488 17.546 43.2574 17.3301C43.466 17.1142 44.0975 16.65 44.6607 16.2987C45.2238 15.9474 45.6847 15.5935 45.6847 15.512C45.6847 15.4308 45.7386 15.396 45.8044 15.4347C46.0614 15.5857 48.112 14.0652 48.112 13.7237C48.112 13.3899 45.4901 11.3399 45.0632 11.3399C44.9646 11.3399 44.551 11.145 44.1443 10.9068C43.7374 10.6687 43.3301 10.4738 43.2389 10.4738C43.1477 10.4738 42.6539 10.2863 42.1413 10.0573C41.6287 9.82807 40.7746 9.53824 40.243 9.41295C39.7115 9.28781 39.1313 9.09513 38.9535 8.98485C38.6308 8.78451 38.1039 8.69632 35.672 8.43565C33.8476 8.24007 30.3048 8.12287 30.1675 8.2535ZM6.18961 30.4284C6.14758 30.5277 6.11315 30.4464 6.11315 30.248C6.11315 30.0495 6.14758 29.9684 6.18961 30.0676C6.23178 30.1669 6.23178 30.3292 6.18961 30.4284Z" fill="#FA8C0F"/>
</svg>
