<svg width="83" height="64" viewBox="0 0 83 64" fill="none" xmlns="http://www.w3.org/2000/svg">
<path opacity="0.4" d="M49.4428 40.3327H33.554C27.3403 40.3327 23.166 35.9746 23.166 29.4872V14.5133C23.166 8.02589 27.3403 3.66602 33.554 3.66602H49.4447C55.6584 3.66602 59.8327 8.02589 59.8327 14.5133V29.4872C59.8327 35.9746 55.6584 40.3327 49.4428 40.3327Z" fill="#07D271"/>
<path fill-rule="evenodd" clip-rule="evenodd" d="M40.1156 15.9034C40.1156 18.415 38.0714 20.4592 35.5597 20.4592C33.0462 20.4592 31.0039 18.415 31.0039 15.9034C31.0039 13.3917 33.0462 11.3457 35.5597 11.3457C38.0714 11.3457 40.1156 13.3917 40.1156 15.9034ZM55.0663 25.8258C55.4934 26.2401 55.7996 26.7131 56.0013 27.2173C56.6118 28.7426 56.2946 30.576 55.6419 32.0866C54.8683 33.8851 53.3869 35.2436 51.5206 35.8376C50.6919 36.1035 49.8229 36.2171 48.9558 36.2171H33.5906C32.0616 36.2171 30.7086 35.8615 29.5994 35.1941C28.9046 34.7761 28.7818 33.8136 29.2969 33.1866C30.1586 32.1416 31.0093 31.093 31.8673 30.0351C33.5026 28.0111 34.6044 27.4245 35.8291 27.9396C36.3259 28.1523 36.8246 28.4731 37.3379 28.8105C38.7056 29.7161 40.6068 30.9591 43.1111 29.6098C44.8229 28.6737 45.8166 27.072 46.6815 25.6779L46.6989 25.6498C46.7571 25.5565 46.8148 25.4632 46.8724 25.3703C47.1665 24.895 47.4561 24.427 47.7843 23.9961C48.1913 23.4626 49.7019 21.7943 51.6544 22.9823C52.8993 23.7303 53.9461 24.7423 55.0663 25.8258Z" fill="#07D271"/>
<path d="M6.744 60L4.584 56.736C5.676 56.64 6.66 55.848 6.66 54.408C6.66 52.932 5.616 51.996 4.152 51.996H0.936V60H1.932V56.82H3.528L5.568 60H6.744ZM4.032 55.944H1.932V52.884H4.032C4.98 52.884 5.628 53.508 5.628 54.408C5.628 55.308 4.98 55.944 4.032 55.944ZM12.4904 60V56.016C12.4904 54.612 11.4704 54.06 10.2464 54.06C9.29841 54.06 8.55441 54.372 7.93041 55.02L8.35041 55.644C8.86641 55.092 9.43041 54.84 10.1264 54.84C10.9664 54.84 11.5904 55.284 11.5904 56.064V57.108C11.1224 56.568 10.4624 56.316 9.67041 56.316C8.68641 56.316 7.64241 56.928 7.64241 58.224C7.64241 59.484 8.68641 60.144 9.67041 60.144C10.4504 60.144 11.1104 59.868 11.5904 59.34V60H12.4904ZM9.99441 59.496C9.15441 59.496 8.56641 58.968 8.56641 58.236C8.56641 57.492 9.15441 56.964 9.99441 56.964C10.6304 56.964 11.2424 57.204 11.5904 57.684V58.776C11.2424 59.256 10.6304 59.496 9.99441 59.496ZM16.1305 60.144C17.6305 60.144 18.4105 59.364 18.4105 58.392C18.4105 56.136 14.8225 56.976 14.8225 55.704C14.8225 55.188 15.3145 54.792 16.1065 54.792C16.8505 54.792 17.4865 55.104 17.8345 55.524L18.2545 54.9C17.7865 54.432 17.0905 54.06 16.1065 54.06C14.7265 54.06 13.9465 54.828 13.9465 55.728C13.9465 57.876 17.5345 57.012 17.5345 58.416C17.5345 58.992 17.0545 59.412 16.1665 59.412C15.3745 59.412 14.6425 59.028 14.2585 58.584L13.7905 59.232C14.3785 59.856 15.1825 60.144 16.1305 60.144ZM27.7687 60V55.812C27.7687 54.648 27.2047 54.06 26.1487 54.06C25.3087 54.06 24.5287 54.612 24.2047 55.14C24.0367 54.54 23.5327 54.06 22.6447 54.06C21.7927 54.06 21.0127 54.672 20.7727 55.044V54.204H19.8727V60H20.7727V55.764C21.0847 55.296 21.7087 54.864 22.2967 54.864C23.0527 54.864 23.3647 55.332 23.3647 56.064V60H24.2647V55.752C24.5647 55.296 25.2007 54.864 25.8007 54.864C26.5447 54.864 26.8687 55.332 26.8687 56.064V60H27.7687ZM34.3761 60V55.932C34.3761 54.672 33.7401 54.06 32.5281 54.06C31.6641 54.06 30.8721 54.564 30.4641 55.044V54.204H29.5641V60H30.4641V55.764C30.8001 55.296 31.4721 54.864 32.1801 54.864C32.9601 54.864 33.4761 55.188 33.4761 56.208V60H34.3761ZM36.6174 53.376C36.9534 53.376 37.2294 53.112 37.2294 52.776C37.2294 52.44 36.9534 52.164 36.6174 52.164C36.2934 52.164 36.0174 52.44 36.0174 52.776C36.0174 53.112 36.2934 53.376 36.6174 53.376ZM37.0734 60V54.204H36.1734V60H37.0734ZM41.6385 62.268C41.8065 62.316 42.1065 62.352 42.2985 62.352C43.0665 62.34 43.6545 62.016 44.0025 61.176L46.9065 54.204H45.9225L44.0025 58.956L42.0705 54.204H41.0985L43.5225 60.06L43.1385 60.936C42.9345 61.416 42.6705 61.548 42.2745 61.548C42.1305 61.548 41.9145 61.512 41.7825 61.452L41.6385 62.268ZM52.6573 60V54.204H51.7573V58.464C51.4213 58.932 50.7493 59.34 50.0413 59.34C49.2613 59.34 48.7453 59.04 48.7453 58.02V54.204H47.8453V58.296C47.8453 59.556 48.4813 60.144 49.6933 60.144C50.5573 60.144 51.3133 59.688 51.7573 59.184V60H52.6573ZM59.5547 60L56.9747 56.832L59.5427 54.204H58.4027L55.3547 57.288V51.996H54.4547V60H55.3547V58.344L56.3147 57.396L58.4027 60H59.5547ZM61.5188 60V51.996H60.6188V60H61.5188ZM67.8381 60V56.016C67.8381 54.612 66.8181 54.06 65.5941 54.06C64.6461 54.06 63.9021 54.372 63.2781 55.02L63.6981 55.644C64.2141 55.092 64.7781 54.84 65.4741 54.84C66.3141 54.84 66.9381 55.284 66.9381 56.064V57.108C66.4701 56.568 65.8101 56.316 65.0181 56.316C64.0341 56.316 62.9901 56.928 62.9901 58.224C62.9901 59.484 64.0341 60.144 65.0181 60.144C65.7981 60.144 66.4581 59.868 66.9381 59.34V60H67.8381ZM65.3421 59.496C64.5021 59.496 63.9141 58.968 63.9141 58.236C63.9141 57.492 64.5021 56.964 65.3421 56.964C65.9781 56.964 66.5901 57.204 66.9381 57.684V58.776C66.5901 59.256 65.9781 59.496 65.3421 59.496ZM74.4542 60V55.932C74.4542 54.672 73.8182 54.06 72.6062 54.06C71.7422 54.06 70.9502 54.564 70.5422 55.044V54.204H69.6422V60H70.5422V55.764C70.8782 55.296 71.5502 54.864 72.2582 54.864C73.0382 54.864 73.5542 55.188 73.5542 56.208V60H74.4542ZM78.5796 62.352C79.9956 62.352 81.3396 61.752 81.3396 59.832V54.204H80.4396V55.08C79.9716 54.444 79.2756 54.06 78.4956 54.06C76.9716 54.06 75.9156 55.212 75.9156 57.072C75.9156 58.944 76.9836 60.072 78.4956 60.072C79.3116 60.072 80.0196 59.628 80.4396 59.04V59.868C80.4396 61.14 79.5396 61.608 78.5796 61.608C77.7516 61.608 77.1756 61.392 76.6956 60.816L76.2396 61.488C76.9236 62.16 77.5956 62.352 78.5796 62.352ZM78.7116 59.28C77.5476 59.28 76.8516 58.344 76.8516 57.072C76.8516 55.788 77.5476 54.864 78.7116 54.864C79.4316 54.864 80.1276 55.296 80.4396 55.8V58.332C80.1276 58.836 79.4316 59.28 78.7116 59.28Z" fill="#A8A8A8"/>
</svg>
