<svg width="29" height="37" viewBox="0 0 29 37" fill="none" xmlns="http://www.w3.org/2000/svg">
<path d="M7.5018 31.8915L6.8374 14.9316" stroke="#00CD6B" stroke-width="1.5" stroke-miterlimit="10" stroke-linecap="round"/>
<path d="M1 5.13281L1.5528 19.3286C1.5528 19.3286 1.57312 20.6727 2.46574 21.5095C3.51559 22.5036 7.18246 25.9574 7.18246 25.9574" stroke="#00CD6B" stroke-width="1.5" stroke-miterlimit="10" stroke-linecap="round" stroke-linejoin="round"/>
<path d="M7.12158 20.5459L12.2795 14.7793" stroke="#00CD6B" stroke-width="1.5" stroke-miterlimit="10" stroke-linecap="round" stroke-linejoin="round"/>
<path d="M6.92871 14.9872L12.1526 9.2207" stroke="#00CD6B" stroke-width="1.5" stroke-miterlimit="10" stroke-linejoin="round"/>
<path d="M6.99468 20.5458L1.43604 15.3066" stroke="#00CD6B" stroke-width="1.5" stroke-miterlimit="10" stroke-linejoin="round"/>
<path d="M6.74622 14.9879L1.28394 9.84009" stroke="#00CD6B" stroke-width="1.5" stroke-miterlimit="10" stroke-linejoin="round"/>
<path d="M4.85966 13.0802L4.39307 1.14648" stroke="#00CD6B" stroke-width="1.5" stroke-miterlimit="10" stroke-linecap="round" stroke-linejoin="round"/>
<path d="M8.44028 13.0048L7.97876 1" stroke="#00CD6B" stroke-width="1.5" stroke-miterlimit="10" stroke-linecap="round" stroke-linejoin="round"/>
<path d="M9.08418 24.1367C8.09011 25.2221 7.375 25.9524 7.375 25.9524" stroke="#00CD6B" stroke-width="1.5" stroke-miterlimit="10" stroke-linecap="round" stroke-linejoin="round"/>
<path d="M11.9702 4.6875L12.3607 14.6839" stroke="#00CD6B" stroke-width="1.5" stroke-miterlimit="10" stroke-linecap="round" stroke-linejoin="round"/>
<path d="M11.2957 35.9899L18.3859 20.5667" stroke="#00CD6B" stroke-width="1.5" stroke-miterlimit="10" stroke-linecap="round"/>
<path d="M17.6202 9.18555L11.6811 22.0931C11.6811 22.0931 11.0928 23.3003 11.5036 24.4516C11.9905 25.8159 13.6946 30.5529 13.6946 30.5529" stroke="#00CD6B" stroke-width="1.5" stroke-miterlimit="10" stroke-linecap="round" stroke-linejoin="round"/>
<path d="M16.0938 25.6988L23.3261 22.8535" stroke="#00CD6B" stroke-width="1.5" stroke-miterlimit="10" stroke-linejoin="round"/>
<path d="M18.4419 20.6531L25.7097 17.8789" stroke="#00CD6B" stroke-width="1.5" stroke-miterlimit="10" stroke-linejoin="round"/>
<path d="M15.9819 25.6429L13.4004 18.4512" stroke="#00CD6B" stroke-width="1.5" stroke-miterlimit="10" stroke-linejoin="round"/>
<path d="M18.2795 20.5778L15.7437 13.5078" stroke="#00CD6B" stroke-width="1.5" stroke-miterlimit="10" stroke-linejoin="round"/>
<path d="M17.4575 18.0215L22.4481 7.16797" stroke="#00CD6B" stroke-width="1.5" stroke-miterlimit="10" stroke-linecap="round" stroke-linejoin="round"/>
<path d="M20.6885 19.5734L25.7095 8.66406" stroke="#00CD6B" stroke-width="1.5" stroke-miterlimit="10" stroke-linecap="round" stroke-linejoin="round"/>
<path d="M27.6013 13.7559L21.6623 26.6634C21.6623 26.6634 21.1297 27.8959 19.9886 28.3371C18.6344 28.8545 13.8721 30.6397 13.8721 30.6397" stroke="#00CD6B" stroke-width="1.5" stroke-miterlimit="10" stroke-linecap="round" stroke-linejoin="round"/>
</svg>
