<svg width="261" height="238" viewBox="0 0 261 238" fill="none" xmlns="http://www.w3.org/2000/svg">
<path opacity="0.4" fill-rule="evenodd" clip-rule="evenodd" d="M145.159 189.773C157.417 181.529 180.106 180.093 175.944 162.103C171.878 143.915 156.592 143.249 128.383 126.83C100.959 108.788 107.876 96.1855 67.4159 94.4902C28.8226 94.5066 40.5708 150.048 12.1378 141.471C-16.2953 132.894 15.6781 203.831 20.7352 209.082C29.6295 218.317 53.052 229.336 64.4767 227.774C73.1527 226.618 101.065 220.204 114.731 213.546C128.081 207.333 129.523 200.839 145.159 189.773Z" fill="#07D271"/>
<path d="M254.344 11.1387L254.425 11.1408C255.106 11.1811 255.626 11.7652 255.586 12.4454L255.45 14.7988L255.363 16.3733C254.458 33.0897 252.31 47.2984 252.815 58.9959L252.892 60.6895C253.498 73.2944 256.717 91.1143 259.973 118.041C260.258 118.241 260.458 118.56 260.494 118.933C260.56 119.611 260.062 120.215 259.383 120.28C243.471 121.82 228.666 122.845 214.967 123.355L213.095 123.422L210.955 123.492C197.106 123.921 177.611 124.129 152.464 124.117C151.781 124.117 151.229 123.564 151.229 122.882C151.229 122.557 142.445 14.6897 142.445 14.6897C142.445 14.6897 254.007 11.1406 254.344 11.1387Z" fill="white"/>
<path d="M232.813 214.387L233.589 214.467C244.63 215.62 251.878 217.284 255.222 219.377L255.431 219.511C257.998 221.216 257.674 222.991 253.984 225.823C249.949 228.921 240.031 231.839 225.192 233.621C206.616 235.851 181.64 236.211 150.275 234.271L146.987 234.067C128.879 232.97 114.986 232.674 89.2737 232.535L82.1758 232.494C66.8678 232.387 60.3613 232.176 54.0801 231.504L53.4829 231.438C45.6084 230.538 41.2566 228.895 39.7986 226.319L39.7452 226.222C39.7175 226.17 39.7173 226.17 39.9289 225.956C40.3524 225.528 41.221 225.028 42.5132 224.508L42.848 224.376C45.6485 223.3 50.0751 222.197 56.1009 221.082L57.2422 220.874C69.2723 218.716 87.2125 216.523 111.051 214.296L114.885 213.942L118.158 213.823C171.799 211.903 210.028 212.092 232.813 214.387Z" fill="white"/>
<path fill-rule="evenodd" clip-rule="evenodd" d="M207.947 11.3947C208.409 10.8931 209.19 10.8605 209.693 11.3218C210.195 11.7831 210.227 12.5636 209.766 13.0651C209.766 13.0651 153.572 76.8638 153.061 75.0883C152.78 74.1114 176.411 45.7537 180.129 41.9311L181.16 40.89C182.903 39.0825 191.534 29.2179 207.947 11.3947Z" fill="#F7FCFC"/>
<path fill-rule="evenodd" clip-rule="evenodd" d="M179.663 25.3922C180.222 25.0021 180.993 25.1388 181.383 25.6975C181.774 26.2562 181.637 27.0254 181.077 27.4155C179.214 28.7147 150.153 57.995 149.536 57.7619C148.918 57.5287 151.897 54.0497 151.897 54.0497C153.801 52.0601 170.81 34.0064 170.81 34.0064C172.239 32.4835 173.559 31.1103 174.823 29.8388C176.073 28.58 177.686 26.7706 179.663 25.3922Z" fill="#F7FCFC"/>
<path fill-rule="evenodd" clip-rule="evenodd" d="M208.107 214.387L208.883 214.467C219.924 215.62 227.172 217.284 230.515 219.377L230.724 219.511C233.291 221.216 232.967 222.991 229.277 225.823C225.242 228.921 181.64 231.769 150.275 229.829L146.987 229.625C128.879 228.528 114.986 225.271 89.2737 225.132L82.1758 225.091C66.8678 224.985 60.3613 232.176 54.0801 231.504L53.4829 231.438C45.6084 230.538 41.2566 228.895 39.7986 226.319L39.7452 226.222C39.7175 226.17 39.7173 226.17 39.9289 225.956C40.3524 225.528 41.221 225.028 42.5132 224.508L42.848 224.376C45.6485 223.3 50.0751 222.197 56.1009 221.082L57.2422 220.874C69.2723 218.716 87.2125 216.523 111.051 214.296L114.885 213.942L118.158 213.823C171.799 211.903 185.321 212.092 208.107 214.387Z" fill="#F7FCFC"/>
<path d="M61.7337 122.142C62.1183 123.149 75.2445 124.728 82.4386 128.975C85.1974 130.604 87.2859 137.652 87.1506 137.785C83.8893 140.998 82.117 142.635 80.3614 143.622C74.1897 147.09 69.4332 146.189 64.8278 145.463C59.2919 144.591 56.0026 138.521 58.1609 133.481C58.4991 132.692 59.3513 131.538 60.7621 129.915L60.9498 129.701C60.9441 129.643 60.9448 129.584 60.952 129.524C61.0164 128.98 61.0245 128.422 60.9757 127.849L60.8666 126.823C60.7377 125.675 60.4884 123.728 60.1178 122.758C59.9476 122.312 60.1713 121.813 60.6175 121.643C61.0637 121.473 61.5634 121.696 61.7337 122.142Z" fill="white"/>
<path d="M92.0456 135.004C92.0444 134.797 92.0966 134.586 92.2069 134.393C92.3986 134.057 92.7246 133.845 93.0792 133.786C93.162 133.711 93.2183 133.685 93.2504 133.716L93.304 133.77C93.5039 133.773 93.7058 133.826 93.8917 133.931L97.5252 135.992C105.057 140.293 113.153 146.689 113.934 151.546C114.819 157.05 109.05 185.688 108.383 185.544C107.716 185.4 95.2186 213.765 95.2113 213.842C95.1867 214.1 84.0765 214.512 72.3886 215.761C68.304 216.198 78.9119 201.965 82.9028 191.902C89.7469 174.646 92.0456 135.004 92.0456 135.004Z" fill="white"/>
<path d="M181.666 149.076C177.256 148.116 172.133 148.598 166.278 150.548C161.487 152.145 158.863 154.379 158.209 157.235L158.172 157.406L158.36 157.483C162.272 159.059 165.923 159.458 169.339 158.702L169.589 158.645C171.954 158.081 173.876 156.756 176.156 154.402L176.471 154.073C177.008 153.501 178.274 152.116 178.43 151.95C179.24 151.083 179.86 150.485 180.486 149.997L180.622 149.893C180.939 149.654 181.325 149.424 181.78 149.199L181.917 149.132L181.666 149.076Z" fill="white"/>
<path d="M138.261 142.293C135.123 141.32 131.401 141.207 127.089 141.972L126.887 142.008L126.931 142.097C128.839 145.919 130.569 148.271 132.014 149.124L132.104 149.176C133.557 149.977 137.02 150.035 142.33 149.244L143.115 149.122L143.096 149.056C143.076 148.981 143.063 148.902 143.058 148.822L143.055 148.741C143.055 145.37 141.521 143.304 138.261 142.293Z" fill="white"/>
<path d="M102.453 124.411C102.366 125.113 102.663 127.693 101.67 128.884C101.276 129.356 100.335 129.694 99.7217 129.397C99.4504 129.265 100.296 128.088 100.81 126.757C101.009 126.243 100.66 125.622 100.81 125.131C100.942 124.701 101.578 124.392 101.67 124.068C101.816 123.555 102.512 123.947 102.453 124.411Z" fill="white"/>
<path d="M104.172 121.397C104.084 122.099 106.171 125.369 105.129 126.417C103.358 128.199 101.655 125.074 102.169 123.743C102.368 123.229 102.378 122.608 102.529 122.116C102.66 121.687 104.23 120.933 104.172 121.397Z" fill="white"/>
<path d="M123.426 173.039C123.041 174.48 122.715 182.937 124.552 187.711C125.225 189.458 126.212 190.738 127.547 191.235C128.67 191.635 129.837 191.884 131.029 192.049C133.598 192.402 153.227 194.07 162.04 192.92C170.852 191.77 170.353 191.663 174.381 190.95C176.33 190.604 178.558 190.237 180.551 189.457C182.018 188.884 183.358 188.088 184.407 186.955C185.347 185.944 185.927 184.223 186.1 182.299C186.32 179.854 185.945 176.621 185.577 174.993C185.577 174.902 185.558 174.868 185.577 174.839C185.669 174.706 184.482 174.046 180.551 173.884C173.811 173.606 163.301 174.132 153.118 174.026C139.223 173.882 125.943 172.611 123.741 172.843C123.539 172.864 123.433 173.011 123.426 173.039Z" fill="white"/>
<path d="M60.3082 127.899C60.9904 127.895 61.5474 128.443 61.5527 129.125C61.5531 129.196 61.5475 129.266 61.5364 129.334L61.6423 129.266C62.2351 128.9 62.9688 128.715 62.812 129.61C62.5933 130.859 59.4633 132.311 59.4633 134.714C59.4633 138.28 60.8403 141.694 65.7933 143.121C79.6653 147.117 86.5163 140.033 89.0808 136.978C89.0797 136.771 89.1318 136.56 89.2421 136.367C89.4338 136.031 89.7598 135.819 90.1144 135.76C90.1972 135.685 90.2536 135.659 90.2856 135.69L90.3392 135.744C90.5391 135.747 90.741 135.8 90.9269 135.905L94.5604 137.967C102.092 142.267 110.188 148.663 110.969 153.52C111.855 159.024 106.085 187.662 105.418 187.518C104.752 187.374 92.2538 215.739 92.2465 215.816C92.2133 216.165 71.9921 216.792 57.4067 219.381C47.8422 221.079 41.6179 224.263 41.4166 224.443C40.9083 224.898 40.3177 225.685 39.8627 225.177C36.8076 221.769 35.9931 212.19 37.1732 198.092L36.5552 198.029C23.9137 196.754 17.6779 193.203 18.1023 185.207C19.1436 165.591 24.6728 150.22 31.1049 140.701C36.816 132.25 45.9389 128.002 60.3082 127.899Z" fill="white"/>
<path fill-rule="evenodd" clip-rule="evenodd" d="M89.0788 136.979C89.0777 136.771 89.1298 136.561 89.2401 136.367C89.4318 136.031 89.7578 135.819 90.1124 135.761C90.1952 135.686 90.2515 135.66 90.2836 135.69L90.3372 135.744C90.5371 135.748 90.739 135.8 90.9249 135.906L94.5584 137.967C102.09 142.268 110.186 148.664 110.967 153.521C111.853 159.024 106.083 187.663 105.416 187.519C104.75 187.374 92.2518 215.74 92.2445 215.817C92.2199 216.075 81.1097 216.486 69.4218 217.736C65.3372 218.172 75.9451 203.939 79.936 193.877C86.7801 176.621 89.0788 136.979 89.0788 136.979Z" fill="#F7FCFC"/>
<path d="M89.7275 136.575C89.7516 137.256 89.1743 137.826 88.4921 137.809C85.0841 137.723 84.5422 131.87 84.8691 131.846C85.3216 131.813 86.0948 134.594 87.6165 135.606C88.7767 136.378 89.6611 134.699 89.7275 136.575Z" fill="white"/>
<path d="M58.8392 120.939C59.3105 120.375 60.1911 120.875 60.4991 121.483C60.807 122.091 60.5632 122.833 59.9544 123.141C56.8478 124.71 52.7113 124.128 50.1628 121.949C45.7359 118.165 45.5547 108.343 45.5547 105.412C45.5547 105.021 50.606 105.482 52.7012 108.22C56.4171 113.075 58.2317 121.666 58.8392 120.939Z" fill="white"/>
<path d="M58.5093 94.2677L58.5566 94.0077C58.5961 93.777 58.5956 93.5267 58.4772 92.2874L58.0822 88.409C58.0075 87.6692 57.9476 87.0312 57.8957 86.4096L57.8548 85.9034C57.4988 81.3353 57.6702 78.7391 58.9053 77.532C62.3915 74.1252 64.3177 74.1986 67.9485 75.3739L68.7096 75.6211C70.3231 76.1311 71.1313 75.7366 72.2348 75.4779L72.5541 75.4055C75.1124 74.8458 77.7787 74.7422 80.8445 75.0084C82.6374 75.1641 83.7469 75.3112 86.5925 75.7997L89.9526 76.3876C92.0553 76.7572 93.4723 76.9873 94.9718 77.1914L95.3024 77.2339C97.7058 77.5245 99.6617 77.3505 102.023 76.8184C102.071 76.8074 103.342 76.508 103.841 76.4011L104.142 76.3411C104.609 76.2541 105.005 76.2083 105.374 76.2084L105.432 76.1761C109.035 74.309 112.464 68.477 112.181 63.7996C111.83 57.9956 106.31 54.312 94.4563 54.2389L93.8793 54.2367C91.9217 54.2155 90.4911 53.8919 86.3814 52.6341L84.3533 52.0085C80.8331 50.9315 78.7122 50.4417 76.4408 50.2895C76.0497 50.2633 75.6664 50.25 75.29 50.25C59.5426 50.25 44.0301 63.6509 41.8951 76.1761C41.5075 78.4502 43.2634 88.483 43.8983 93.4703C43.8983 93.4703 50.0158 93.5376 52.9939 93.9667C53.2778 94.0077 55.6922 99.2639 57.1552 99.2639C58.4772 99.2639 58.5093 94.2677 58.5093 94.2677Z" fill="white"/>
<path d="M67.5653 77.3521C69.7603 78.0729 70.9658 78.2778 72.6259 77.9197L73.2353 77.7818C77.1714 76.9228 80.1849 77.1821 88.6054 78.6566L90.6249 79.0097C92.1849 79.2775 93.38 79.4656 94.6378 79.6369C97.409 80.0142 99.6472 79.856 102.24 79.2978L104.887 78.7065C105.343 78.6117 105.287 78.6474 105.451 78.6737L105.527 78.6832C105.874 78.7153 107.05 78.8918 107.326 79.6892C109.028 84.5987 109.522 96.3168 107.715 105.964C105.262 119.062 98.2228 128.041 88.1629 130.768C72.8331 134.924 61.3082 127.028 53.3298 106.632L53.0843 106.005L52.423 105.872L51.9511 105.774C44.3569 104.149 41.7921 101.234 44.3593 96.488C45.6451 94.111 47.4064 93.3749 48.8743 93.8721C50.6604 94.477 52.9107 96.8092 55.482 100.882L55.5107 100.925C56.6385 102.555 58.2036 101.93 58.9988 100.2C59.4949 99.1206 59.9663 97.3153 60.4415 94.7328L60.537 94.2051C60.6176 93.7107 60.5798 93.316 60.1659 89.3254L60.0193 87.896C59.9669 87.3685 59.9224 86.8927 59.8828 86.4334L59.8634 86.2049C59.701 84.2609 59.6414 82.7123 59.7025 81.4949C59.7645 80.258 59.9634 79.4677 60.1389 79.2962L60.4324 79.0139C62.9827 76.6024 64.4285 76.3613 67.0376 77.1807L67.5653 77.3521Z" fill="white"/>
<path fill-rule="evenodd" clip-rule="evenodd" d="M107.716 105.963C105.263 119.061 98.2237 128.04 88.1638 130.767C85.2362 131.561 93.7152 128.423 98.1816 122.781C104.306 115.044 107.752 103.587 108.319 100.117C110.036 89.6208 109.523 96.3159 107.716 105.963Z" fill="#F7FCFC"/>
<path fill-rule="evenodd" clip-rule="evenodd" d="M59 100.2C59.4961 99.1206 59.9675 97.3153 60.4427 94.7328L60.5382 94.2051C60.6188 93.7107 60.5811 93.316 60.1672 89.3254L60.0206 87.896C59.9682 87.3685 59.9236 86.8927 59.884 86.4334L59.8646 86.2049C59.7022 84.2609 59.6426 82.7123 59.7037 81.4949C59.7657 80.258 59.9647 79.4677 60.1401 79.2962L60.4336 79.0139C62.9839 76.6024 64.4297 76.3613 67.0388 77.1807L67.5665 77.3521C69.7615 78.0729 70.967 78.2778 72.6271 77.9197L73.2365 77.7818C77.1726 76.9228 80.1862 77.1821 88.6066 78.6566L90.6261 79.0097C92.1862 79.2775 93.3812 79.4656 94.639 79.6369C97.4102 80.0142 99.6485 79.856 102.241 79.2978L104.888 78.7065C105.344 78.6117 105.288 78.6474 105.452 78.6737L105.529 78.6832C105.875 78.7153 107.051 78.8918 107.327 79.6892C107.327 79.6892 106.256 80.5564 105.452 80.6154C98.4526 81.1297 93.3632 82.3498 87.9531 82.8671C79.4223 83.6829 71.793 83.9628 67.5665 86.2049C65.5244 87.2883 63.3561 98.4584 60.6341 102.245C59.0922 104.389 59 100.2 59 100.2Z" fill="#F7FCFC"/>
<path fill-rule="evenodd" clip-rule="evenodd" d="M123.565 187.711C124.237 189.458 125.224 190.738 126.559 191.235C127.682 191.635 128.849 191.884 130.041 192.049C132.61 192.402 152.24 194.07 161.052 192.92C169.864 191.77 169.365 191.663 173.393 190.95C175.342 190.604 177.571 190.237 179.563 189.457C181.03 188.884 182.37 188.088 183.419 186.955C184.359 185.944 184.939 184.223 185.112 182.299C185.332 179.854 184.957 176.621 184.59 174.993C184.508 174.556 183.041 174.873 183.122 175.31C183.342 176.822 183.41 179.825 183.124 182.046C182.947 183.423 182.677 184.703 182 185.429C181.153 186.34 180.06 186.961 178.876 187.425C177.001 188.163 174.9 188.509 173.067 188.841C169.093 189.565 165.381 190.505 148.921 190.95C146.252 191.022 132.883 190.332 130.294 189.962C129.228 189.81 128.184 189.591 127.18 189.229C126.009 188.833 125.394 187.383 124.846 185.755C124.186 183.789 122.652 176.764 123.565 175.254C123.905 174.691 126.36 174.814 127.896 174.976C132.817 175.497 141.846 175.706 150.608 175.803C160.254 175.91 183.253 175.915 183.253 175.473C183.253 175.075 184.168 174.976 184.59 174.993C184.726 174.999 183.825 173.884 179.563 173.884C172.772 173.884 162.313 174.132 152.13 174.026C138.235 173.882 124.955 172.611 122.753 172.843C122.707 172.847 122.662 172.851 122.621 172.854C121.01 172.948 121.727 182.937 123.565 187.711Z" fill="#232730"/>
<path fill-rule="evenodd" clip-rule="evenodd" d="M126.828 178.091C126.896 177.59 127.477 176.497 127.716 177.071C128.139 178.091 127.708 184.903 131.704 185.61C132.374 185.729 134.139 185.984 134.139 186.546C134.139 187.108 133.866 187.956 132.402 187.559C129.82 186.859 128.343 185.415 127.438 183.123C126.794 181.493 126.623 179.583 126.828 178.091Z" fill="#232730"/>
<path fill-rule="evenodd" clip-rule="evenodd" d="M37.7406 161.318L37.7417 161.33C37.7423 161.424 37.8582 161.552 37.8788 161.828C37.9662 163.003 37.467 165.77 37.3786 166.643C37.1473 168.69 36.7429 171.248 36.6702 173.693C36.6235 175.273 36.707 176.804 37.1567 178.102C38.0916 180.897 40.2494 182.616 42.8565 183.714C45.1887 184.699 47.8879 185.132 50.477 185.442C52.3655 185.667 54.1879 185.855 55.8039 185.946C56.08 185.946 56.3043 186.17 56.3043 186.447C56.3043 186.723 56.08 186.945 55.8039 186.945C54.1525 187.039 52.2772 187.152 50.3368 187.044C47.5613 186.891 44.6837 186.336 42.1906 185.305C39.1115 184.03 36.6258 181.938 35.5278 178.643C35.0496 177.154 34.9371 175.407 35.0639 173.611C35.2397 171.123 35.8453 168.547 36.2037 166.475C36.3647 165.607 36.6554 162.793 37.1045 161.7C37.3242 161.162 37.7035 161.096 37.716 161.128C37.7682 161.179 37.7765 161.258 37.7406 161.318Z" fill="#232730"/>
<path fill-rule="evenodd" clip-rule="evenodd" d="M62.6421 181.457L61.1443 181.696C60.673 181.794 60.1364 181.985 59.6873 182.278C59.355 182.495 59.082 182.776 58.8971 183.105C58.8107 183.262 58.7612 183.421 58.7264 183.579C58.6611 183.877 58.6794 184.178 58.6269 184.498C58.5848 184.75 58.5699 185 58.5785 185.249C58.5902 185.591 58.6477 185.93 58.6834 186.273C58.7617 186.816 58.7865 187.337 58.9988 187.816C59.0946 188.032 59.2234 188.225 59.3878 188.421C59.4659 188.562 59.6431 188.612 59.7836 188.534C59.9241 188.456 59.9748 188.279 59.8967 188.139C59.8967 188.139 58.9233 183.631 60.1089 182.883C61.2946 182.136 61.9522 182.233 62.299 182.148C62.4409 182.112 62.7498 181.733 62.7675 181.646C62.7851 181.559 62.729 181.475 62.6421 181.457Z" fill="#232730"/>
<path fill-rule="evenodd" clip-rule="evenodd" d="M62.5927 181.628L62.7568 181.967C62.8096 182.187 62.8178 182.442 62.8235 182.687C62.8286 182.904 62.8523 183.116 62.7164 183.293C62.6429 183.367 62.6429 183.486 62.7164 183.559C62.7899 183.633 62.909 183.633 62.9825 183.559C63.2233 183.393 63.3706 183.157 63.4147 182.882C63.472 182.525 63.3179 182.137 63.1839 181.825C63.1395 181.725 62.97 181.48 62.7953 181.378C62.6563 181.297 62.5215 181.277 62.4158 181.361C62.342 181.409 62.3215 181.509 62.3702 181.583C62.4192 181.657 62.5189 181.677 62.5927 181.628Z" fill="#232730"/>
<path fill-rule="evenodd" clip-rule="evenodd" d="M62.3925 183.347C62.2635 183.421 62.1438 183.496 62.0969 183.518C61.6424 183.724 61.3823 184.176 61.3125 184.716C61.2279 185.372 61.4686 186.134 61.6085 186.601C61.6487 186.762 61.8128 186.861 61.9744 186.821C62.1359 186.78 62.2342 186.616 62.1938 186.455C62.0869 185.975 61.9712 185.162 62.0878 184.539C62.1319 184.304 62.169 184.082 62.3508 183.94C62.3508 183.94 62.4798 183.297 62.3925 183.347Z" fill="#232730"/>
<path fill-rule="evenodd" clip-rule="evenodd" d="M59.2363 184.151C59.5085 184.456 59.4813 184.924 59.1756 185.196C58.7109 185.609 58.3034 185.925 57.9467 186.144L57.7728 186.246C57.4687 186.418 57.0639 186.616 56.5541 186.844C56.4907 186.873 55.9016 187.059 55.6868 186.892C55.5731 186.804 55.4477 186.7 55.3822 186.551C55.3517 186.482 55.4556 186.345 55.647 186.17C55.9659 185.879 56.8141 185.723 57.4004 185.356C58.3597 184.756 59.0987 183.997 59.2363 184.151Z" fill="#232730"/>
<path fill-rule="evenodd" clip-rule="evenodd" d="M61.8696 191.134C62.1595 190.845 62.6288 190.846 62.9178 191.136C64.1849 192.405 64.5622 193.621 63.7405 194.622C63.2155 195.262 62.4684 195.821 61.4091 196.245C60.9148 196.443 60.9746 196.536 59.6854 196.818C59.2856 196.906 58.8903 196.653 58.8025 196.254C58.7148 195.855 58.9678 195.46 59.3676 195.372L59.8866 195.256C60.8164 195.042 62.2241 194.134 62.5939 193.684C62.8045 193.427 62.6657 192.98 61.8681 192.181C61.579 191.891 61.5797 191.423 61.8696 191.134Z" fill="#232730"/>
<path fill-rule="evenodd" clip-rule="evenodd" d="M80.9196 179.198C81.0925 182.598 81.1627 184.64 81.1304 185.323C81.0409 187.179 80.7012 189.558 79.8794 191.63C79.2841 193.13 78.4189 194.451 77.3116 195.361C76.5592 195.948 74.968 197.091 70.251 196.764C60.7788 196.11 62.2831 180.069 62.3415 179.836C62.4002 179.603 62.6462 178.698 62.8804 178.755C63.3056 178.823 61.658 195.484 69.9976 195.598C70.645 195.606 71.2823 195.518 71.9351 195.433C72.8396 195.364 73.7911 195.159 74.6719 194.818C75.2236 194.604 75.7482 194.334 76.1968 193.967C77.1169 193.255 77.7991 192.171 78.3417 190.978C79.1969 189.097 79.8191 186.942 80.0223 185.231C80.13 184.337 80.3684 178.911 80.3684 178.911C80.4933 178.481 80.9148 179.103 80.9196 179.198Z" fill="#232730"/>
<path fill-rule="evenodd" clip-rule="evenodd" d="M71.6941 177.25L72.1184 177.252C76.9701 177.3 80.8355 178.165 80.8355 179.224C80.8355 180.314 79.0097 182.383 73.9611 182.383L73.5368 182.381C66.7537 182.663 62.5527 180.284 62.5527 179.224C62.5527 178.134 66.6455 177.25 71.6941 177.25Z" fill="#232730"/>
<path fill-rule="evenodd" clip-rule="evenodd" d="M71.6941 177.742L71.2831 177.744C66.7845 177.792 63.0469 178.617 63.0469 179.223C63.0469 179.846 67.0144 181.197 71.6941 181.197L72.1051 181.195C76.6038 181.147 80.3414 179.828 80.3414 179.223C80.3414 178.599 76.3738 177.742 71.6941 177.742Z" fill="white"/>
<path fill-rule="evenodd" clip-rule="evenodd" d="M78.798 113.545C79.0243 113.861 79.3041 114.152 79.6341 114.406C79.9825 114.677 80.3874 114.846 80.791 114.965C81.5789 115.176 82.3566 115.387 83.1605 115.518C85.6361 115.921 91.8391 116.598 92.4487 116.712C92.86 116.832 93.2909 116.595 93.41 116.183C93.5291 115.772 93.2914 115.341 92.8801 115.221C92.2601 114.973 91.6468 114.739 91.0065 114.574C90.0583 114.33 89.0843 114.216 88.1137 114.103C86.4595 113.907 84.7998 113.744 83.1373 113.641C82.431 113.6 81.7344 113.61 81.0282 113.563C80.8096 113.554 80.59 113.522 80.3725 113.452C80.0003 113.335 79.6411 113.195 79.3389 112.99L78.5328 112.387C78.445 112.386 78.373 112.459 78.3732 112.548C78.3735 112.637 78.7366 113.45 78.798 113.545Z" fill="#232730"/>
<path fill-rule="evenodd" clip-rule="evenodd" d="M86.5505 119.451C86.9705 119.903 87.6609 120.282 88.4222 120.396C89.1943 120.507 89.9881 120.319 90.5246 120.02C90.6899 119.937 90.7568 119.735 90.6742 119.57C90.5916 119.405 90.3904 119.34 90.2255 119.422C89.8579 119.582 89.367 119.607 88.8627 119.585C88.6504 119.573 88.4367 119.545 88.2242 119.528C87.6694 119.476 87.1412 119.434 86.7551 119.203C86.6867 119.149 86.5853 119.158 86.5289 119.226C86.4725 119.294 86.4822 119.394 86.5505 119.451Z" fill="#232730"/>
<path fill-rule="evenodd" clip-rule="evenodd" d="M254.425 11.1408C255.106 11.1811 255.626 11.7652 255.586 12.4454L255.45 14.7988C254.471 32.1992 254.243 46.9329 254.763 58.9959L254.787 59.5343C255.361 72.2127 256.763 90.0871 259.973 118.04C260.259 118.24 260.459 118.559 260.495 118.933C260.561 119.612 260.064 120.215 259.385 120.28C243.473 121.82 228.667 122.845 214.968 123.355L213.097 123.422C199.144 123.898 178.936 124.13 152.465 124.117C151.783 124.117 151.23 123.564 151.23 122.883C151.231 122.201 151.784 121.649 152.466 121.649L158.037 121.648C182.283 121.628 200.89 121.387 213.855 120.927L215.854 120.852C228.749 120.351 242.628 119.395 257.488 117.983C256.963 112.712 252.869 71.4075 252.336 60.0315L252.319 59.6457C251.74 46.8518 252.007 31.0713 253.119 12.2996C253.158 11.6466 253.698 11.1423 254.344 11.1387L254.425 11.1408ZM141.058 13.6306C141.734 13.5402 142.356 14.0144 142.446 14.6898L142.894 18.0518C145.589 38.445 147.374 54.6553 148.249 66.6881L148.331 67.8519C149.217 80.6335 149.769 99.181 149.988 123.502C149.994 124.184 149.446 124.741 148.764 124.747C148.081 124.753 147.523 124.206 147.517 123.525L147.482 119.926C147.251 98.1235 146.738 81.2069 145.945 69.1829L145.867 68.0222C144.985 55.3008 143.029 37.6302 139.997 15.0172C139.907 14.3418 140.382 13.721 141.058 13.6306Z" fill="#232730"/>
<path fill-rule="evenodd" clip-rule="evenodd" d="M58.6734 127.913C59.3556 127.908 59.9126 128.456 59.9175 129.138C59.9224 129.819 59.3733 130.375 58.691 130.38C45.0686 130.477 35.7288 134.401 30.5298 142.095C24.3677 151.213 18.5575 166.093 18.9347 185.351C19.2154 199.68 49.386 197.405 56.6199 197.022C57.5857 196.971 58.2436 197.484 58.2363 197.561C58.1814 198.138 57.7227 198.614 57.1231 198.671C48.3079 199.506 40.8981 198.646 34.9205 198.042C22.2789 196.767 16.0431 193.216 16.4676 185.22C17.5089 165.604 23.038 150.233 29.4702 140.714C35.1812 132.263 44.3041 128.015 58.6734 127.913Z" fill="#232730"/>
<path fill-rule="evenodd" clip-rule="evenodd" d="M58.9049 77.5308C57.6698 78.7378 57.4984 81.334 57.8544 85.9021L57.8953 86.4083C57.9472 87.03 58.007 87.668 58.0817 88.4078L58.4767 92.2862C58.5952 93.5255 58.5957 93.7758 58.5561 94.0064L58.5089 94.2665C58.1709 96.1054 57.3455 97.9976 57.034 98.933L56.968 99.1235L56.9308 99.0667C54.3321 95.1496 51.9487 92.3061 49.6676 91.5335C46.882 90.59 44.4795 91.9858 42.6795 95.3133L42.575 95.5097C39.2983 101.774 42.9131 105.651 51.5987 107.618L51.7678 107.655L52.0313 108.307C60.4264 128.838 72.4376 137.587 88.8099 133.148C99.956 130.126 106.546 120.347 109.155 106.416C111.036 96.3706 110.524 84.2235 108.672 78.8804C108.103 77.237 107.167 76.3551 105.755 76.2244C105.275 76.1799 104.774 76.2222 104.142 76.3398L103.84 76.3998C103.342 76.5068 102.071 76.8062 102.022 76.8171C99.6613 77.3492 97.7054 77.5233 95.3019 77.2327L94.9713 77.1902C93.4719 76.986 92.0549 76.7559 89.9522 76.3863L86.5921 75.7984C83.7465 75.3099 82.6369 75.1628 80.8441 75.0071C77.7783 74.741 75.112 74.8445 72.5536 75.4043L72.2344 75.4766C71.1309 75.7353 70.3227 76.1298 68.7091 75.6199L67.9481 75.3726C64.3173 74.1973 62.3911 74.1239 58.9049 77.5308ZM67.5653 77.3507C69.7603 78.0715 70.9658 78.2764 72.6259 77.9182L73.2353 77.7804C77.1714 76.9214 80.1849 77.1807 88.6054 78.6552L90.6249 79.0083C92.1849 79.2761 93.38 79.4642 94.6378 79.6354C97.409 80.0128 99.6472 79.8546 102.24 79.2964L104.887 78.7051C105.343 78.6103 105.287 78.6459 105.451 78.6723L105.527 78.6818C105.874 78.7139 107.05 78.8904 107.326 79.6878C109.028 84.5973 109.522 96.3154 107.715 105.962C105.262 119.061 98.2228 128.04 88.1629 130.767C72.8331 134.923 61.3082 127.026 53.3298 106.631L53.0843 106.003L52.423 105.87L51.9511 105.772C44.3569 104.147 41.7921 101.232 44.3593 96.4866C45.6451 94.1096 47.4064 93.3735 48.8743 93.8707C50.6604 94.4756 52.9107 96.8078 55.482 100.88L55.5107 100.924C56.6385 102.553 58.2036 101.929 58.9988 100.199C59.4949 99.1192 59.9663 97.3139 60.4415 94.7314L60.537 94.2037C60.6176 93.7093 60.5798 93.3145 60.1659 89.324L60.0193 87.8946C59.9669 87.3671 59.9224 86.8913 59.8828 86.4319L59.8634 86.2035C59.701 84.2595 59.6414 82.7109 59.7025 81.4935C59.7645 80.2566 59.9634 79.4663 60.1389 79.2948L60.4324 79.0125C62.9827 76.601 64.4285 76.3599 67.0376 77.1793L67.5653 77.3507Z" fill="#232730"/>
<path fill-rule="evenodd" clip-rule="evenodd" d="M75.2913 47.7812C75.7239 47.7812 76.1623 47.7964 76.6075 47.8263C79.1153 47.9943 81.3769 48.5159 85.0611 49.6427L87.2683 50.3229C91.1085 51.4944 92.3855 51.7691 94.0965 51.7691C107.363 51.7691 114.202 56.2637 114.649 63.6497C114.991 69.3152 111.028 76.0556 106.571 78.3652C105.965 78.679 105.22 78.4431 104.906 77.8383C104.591 77.2334 104.828 76.4887 105.433 76.1749C109.036 74.3078 112.465 68.4758 112.182 63.7984C111.832 57.9944 106.311 54.3108 94.4576 54.2378L93.8807 54.2355C91.9231 54.2143 90.4925 53.8907 86.3828 52.6329L84.3546 52.0073C80.8345 50.9304 78.7135 50.4405 76.4421 50.2883C76.0511 50.2621 75.6678 50.2488 75.2913 50.2488C59.544 50.2488 44.0314 63.6497 41.8965 76.1749C41.3773 79.2204 44.7026 96.1807 44.0314 96.303C43.3603 96.4253 42.7169 95.981 42.5945 95.3107L42.4499 94.5063C41.0181 86.3993 39.4737 79.0784 40.3565 75.2413C43.9305 59.7063 58.3734 47.7812 75.2913 47.7812Z" fill="#232730"/>
<path fill-rule="evenodd" clip-rule="evenodd" d="M92.7928 83.6543C93.5346 83.6543 93.8885 85.31 93.7591 85.7348C93.1971 87.5784 94.6036 98.0867 95.6456 100.802L95.6948 100.927C97.207 104.686 95.0067 107.117 90.0224 107.794C89.3464 107.886 88.7238 107.413 88.6318 106.738C88.6031 106.527 88.7881 105.969 89.2532 106.01C92.6765 106.308 95.1603 103.376 94.428 101.449L94.3341 101.21C93.1384 98.1072 91.7935 91.3331 91.7935 84.9054C91.7935 84.223 92.1425 83.6543 92.7928 83.6543Z" fill="#232730"/>
<path fill-rule="evenodd" clip-rule="evenodd" d="M45.5541 105.412C45.9101 106.275 45.6206 114.91 50.1622 119.591C53.7711 123.311 57.8754 122.091 58.8386 120.939C59.31 120.375 60.1905 120.875 60.4985 121.483C60.8065 122.091 60.5626 122.834 59.9538 123.141C56.8472 124.711 52.7107 124.128 50.1622 121.95C45.7353 118.165 44.7695 109.903 44.7695 106.971C44.7695 105.886 45.2371 104.644 45.5541 105.412Z" fill="#232730"/>
<path fill-rule="evenodd" clip-rule="evenodd" d="M96.9501 94.6291C97.3809 93.9816 98.0118 93.9053 98.6507 94.1703C99.2734 94.4285 99.886 95.0946 100.086 95.5425C100.381 96.2083 100.385 97.2967 100.147 98.3322C99.9037 99.3927 99.4139 100.38 98.8838 100.825C98.3797 101.245 97.9569 101.414 97.5051 100.748C95.7816 98.2068 96.7842 94.8784 96.9501 94.6291Z" fill="#232730"/>
<path fill-rule="evenodd" clip-rule="evenodd" d="M77.6658 97.0878C77.4786 96.4016 77.491 92.8535 78.8337 92.8535C80.8304 92.8535 81.0852 96.5463 80.829 97.2919C79.3851 101.494 77.8529 97.7741 77.6658 97.0878Z" fill="#232730"/>
<path fill-rule="evenodd" clip-rule="evenodd" d="M94.7701 58.8923C94.3785 58.3526 95.9243 58.1863 96.4873 58.5713C101.199 61.7933 103.62 64.8744 103.578 67.9474C103.537 70.9654 101.084 74.3363 96.331 78.2248C95.8032 78.6566 95.0249 78.5793 94.5926 78.0521C94.1603 77.525 100.77 73.2851 101.107 67.9138C101.445 62.5424 95.5048 59.9049 94.7701 58.8923Z" fill="#232730"/>
<path fill-rule="evenodd" clip-rule="evenodd" d="M102.089 57.5867C101.888 56.7114 103.165 56.766 103.765 57.0912C107.567 59.1535 109.524 62.3505 109.524 66.528C109.524 70.6199 106.754 74.1843 102.575 78.3125C102.089 78.7917 101.307 78.7873 100.828 78.3029C100.348 77.8184 107.574 72.7628 107.574 65.4741C107.574 58.1855 102.362 58.7749 102.089 57.5867Z" fill="#232730"/>
<ellipse cx="100.847" cy="105.936" rx="4.69422" ry="1.7273" fill="#FAB529"/>
<path fill-rule="evenodd" clip-rule="evenodd" d="M95.8058 85.1285C96.9226 84.7297 98.4647 84.9753 100.479 85.8004C100.821 85.9408 101.154 86.1243 101.518 86.3639L101.77 86.5391C102.238 86.872 103.035 87.4648 103.19 87.5734C103.695 87.9279 104.155 88.2063 104.653 88.4463C105.127 88.6754 105.9 88.8865 106.955 89.0663C107.359 89.135 107.63 89.5174 107.561 89.9204C107.493 90.3235 102.905 89.6761 102.338 89.2789L101.171 88.4264C100.968 88.2787 100.793 88.1536 100.701 88.0929C100.412 87.9024 100.16 87.7638 99.916 87.6637C98.2716 86.99 97.0793 86.7854 96.3805 86.9915L96.3049 87.0161C94.8456 86.6572 95.4204 85.2661 95.8058 85.1285Z" fill="#232730"/>
<path fill-rule="evenodd" clip-rule="evenodd" d="M59.1348 121.643C59.5811 121.473 60.0808 121.696 60.251 122.142C60.7831 123.535 61.096 126.599 61.1873 127.41C61.2762 128.199 61.2762 128.972 61.1868 129.727C61.1306 130.2 60.7007 130.539 60.2264 130.483C59.7521 130.427 59.4132 129.997 59.4693 129.524C59.543 128.902 59.543 128.262 59.4687 127.603C59.397 126.966 59.1198 124.026 58.6352 122.758C58.4649 122.312 58.6886 121.813 59.1348 121.643Z" fill="#232730"/>
<path fill-rule="evenodd" clip-rule="evenodd" d="M59.4339 129.738C59.883 129.225 61.3957 128.373 61.177 129.622C60.9583 130.871 57.8284 132.322 57.8284 134.725C57.8284 138.292 59.2054 141.705 64.1583 143.132C81.9003 148.243 88.1576 135.23 88.6506 135.701C89.1436 136.172 89.161 136.953 88.6895 137.446C85.9027 140.356 83.6559 142.296 81.9003 143.282C75.7287 146.751 69.0295 147.438 63.3463 145.463C58.1483 143.656 54.5211 138.52 56.6794 133.48C57.0297 132.663 57.9314 131.454 59.4339 129.738Z" fill="#232730"/>
<path fill-rule="evenodd" clip-rule="evenodd" d="M183.619 1.70273C184.179 1.31266 184.949 1.44937 185.339 2.00808C185.73 2.56679 185.098 3.37057 184.539 3.76064C182.676 5.05989 178.187 9.3041 177.267 10.2762L176.384 11.2158C174.65 13.0814 153.988 34.54 153.492 34.0724C153.037 33.6435 173.197 11.5026 174.709 9.88452L174.767 9.82348C176.196 8.30049 177.516 6.92737 178.779 5.65582C180.03 4.397 181.643 3.08117 183.619 1.70273Z" fill="#F7FCFC"/>
<path fill-rule="evenodd" clip-rule="evenodd" d="M183.62 19.9625C184.18 19.5724 184.95 19.7091 185.34 20.2679C185.731 20.8266 185.594 21.5957 185.034 21.9858C183.171 23.285 154.11 52.5653 153.493 52.3322C152.875 52.099 155.854 48.6201 155.854 48.6201C157.758 46.6305 174.767 28.5768 174.767 28.5768C176.196 27.0538 177.516 25.6806 178.78 24.4091C180.03 23.1503 181.643 21.3409 183.62 19.9625Z" fill="#232730"/>
<path fill-rule="evenodd" clip-rule="evenodd" d="M210.908 5.96693C211.37 5.4654 212.151 5.43278 212.654 5.89406C213.156 6.35534 213.188 7.13585 212.727 7.63738C212.727 7.63738 156.533 71.4361 156.022 69.6606C155.741 68.6837 179.372 40.326 183.09 36.5034L184.121 35.4623C185.864 33.6547 194.495 23.7902 210.908 5.96693Z" fill="#232730"/>
<path fill-rule="evenodd" clip-rule="evenodd" d="M81.2199 83.6933C82.2387 83.5664 84.0004 83.7402 85.9328 84.3468C86.5837 84.5512 86.9455 85.2438 86.7409 85.8938C86.5363 86.5439 85.8429 86.9052 85.192 86.7009C83.5529 86.1864 82.2882 85.9227 81.431 85.9007L81.2199 85.9002C80.9194 85.9072 80.6999 85.9596 79.8485 86.2846L78.568 86.7845C77.3415 87.2676 76.4384 87.5517 75.4381 87.7158C74.3103 87.9009 72.6087 87.8254 70.272 87.5081C69.5959 87.4163 68.4402 86.6152 69.2143 86.1193C69.9885 85.6235 73.2622 86.1641 74.7971 85.8938C76.3319 85.6235 79.2454 83.9393 81.2199 83.6933Z" fill="#232730"/>
<path fill-rule="evenodd" clip-rule="evenodd" d="M28.4256 168.219C33.9886 168.121 36.3592 169.666 35.8474 170.166C35.8474 170.166 29.938 169.717 28.4256 169.666C26.827 169.613 19.5089 169.503 19.3074 168.852C19.2308 168.605 19.2361 168.351 19.3078 168.121C19.3828 167.881 20.8211 168.029 23.3081 168.14C24.7027 168.203 26.427 168.254 28.4256 168.219Z" fill="#232730"/>
<path fill-rule="evenodd" clip-rule="evenodd" d="M37.2199 198.068C37.2199 198.068 36.7194 221.623 40.0672 223.543C40.5297 223.808 40.4791 224.831 39.9708 225.285C39.4625 225.74 38.6815 225.696 38.2264 225.189C35.1502 221.757 34.3457 212.069 35.5618 197.811C35.6174 197.159 37.2778 197.389 37.2199 198.068Z" fill="#232730"/>
<path fill-rule="evenodd" clip-rule="evenodd" d="M114.763 211.478L114.696 211.482L110.753 211.846C86.1147 214.148 70.7161 216.418 58.6152 218.657L57.4783 218.87C51.6395 219.987 46.8457 221.099 44.0598 222.22C40.5754 223.623 37.4401 225.296 38.5523 227.382C40.4903 231.018 44.5687 232.442 53.5031 233.43L54.456 233.531C61.3626 234.235 68.7856 234.406 87.6033 234.501L94.0334 234.538C116.972 234.691 130.238 235.514 147.416 236.566L149.167 236.675C180.8 238.67 206.05 238.35 224.917 236.139L225.487 236.071C240.73 234.241 251.015 231.214 255.489 227.78C258.122 225.759 258.525 223.733 258.598 221.859C258.663 220.174 254.792 217.629 252.58 216.793C246.42 214.463 244.41 213.619 232.566 212.426C209.174 210.07 170.246 209.427 114.763 211.478ZM232.813 214.387L233.589 214.467C244.63 215.62 251.878 217.285 255.222 219.377L255.431 219.512C257.998 221.216 257.674 222.991 253.984 225.824C249.949 228.921 240.031 231.84 225.192 233.621C206.616 235.851 181.64 236.211 150.275 234.271L146.987 234.068C128.879 232.971 114.986 232.674 89.2737 232.535L82.1758 232.494C66.8678 232.388 60.3613 232.177 54.0801 231.504L53.4829 231.438C45.6084 230.539 41.2566 228.896 39.7986 226.319L39.7452 226.222C39.7175 226.17 39.7173 226.171 39.9289 225.957C40.3524 225.528 41.221 225.029 42.5132 224.509L42.848 224.377C45.6485 223.301 50.0751 222.198 56.1009 221.083L57.2422 220.875C69.2723 218.717 87.2125 216.523 111.051 214.296L114.885 213.942L118.158 213.823C171.799 211.903 210.028 212.093 232.813 214.387Z" fill="#232730"/>
<path d="M176.611 190.342C176.159 206.781 174.87 217.731 172.678 221.563C170.823 224.805 164.595 225.905 156.7 225.372L153.858 225.166C149.997 224.877 147.845 224.666 145.769 224.346L145.486 224.302C142.147 223.769 139.943 223.033 138.708 221.836C134.15 217.423 131.734 207.644 131.272 192.411C131.251 191.73 133.06 192.357 133.742 192.336C133.883 192.332 142.039 193.315 153.264 192.792C159.921 192.482 176.611 190.342 176.611 190.342Z" fill="white"/>
<path fill-rule="evenodd" clip-rule="evenodd" d="M132.665 192.225C133.116 208.664 136.997 218.218 139.189 222.05C141.044 225.292 147.273 226.392 155.167 225.859L158.009 225.653C161.87 225.364 147.707 221.151 142.817 215.815C137.332 209.831 132.665 192.225 132.665 192.225Z" fill="#F7FCFC"/>
<path fill-rule="evenodd" clip-rule="evenodd" d="M136.005 197.317C136.098 196.642 136.931 195.487 137.397 196.262C137.862 197.037 138.071 198.917 139.039 201.317L141.093 205.295C141.275 205.746 141.44 206.163 141.595 206.565L141.687 206.805C142.614 209.235 143.183 210.658 143.385 212.275C143.47 212.951 142.989 213.568 142.312 213.652C141.635 213.737 141.018 213.257 140.933 212.581C140.761 211.205 140.735 209.45 139.873 207.19L139.692 206.722C139.568 206.404 139.437 206.074 139.295 205.722L137.869 202.259C137.621 201.653 137.431 201.172 137.263 200.725L137.129 200.362C136.616 198.952 135.906 198.04 136.005 197.317Z" fill="#232730"/>
<path fill-rule="evenodd" clip-rule="evenodd" d="M103.483 119.882C102.722 120.459 103.651 121.273 103.949 122.161C104.017 122.363 104.103 122.572 104.217 122.815L104.356 123.105L104.671 123.732L104.802 123.998C104.942 124.289 105.042 124.518 105.121 124.735C105.366 125.409 105.343 125.712 105.113 125.917C103.815 127.074 102.437 127.848 99.7952 129.016L98.3367 129.654C93.9394 131.595 91.0055 132.882 89.3517 135.509C87.1694 138.975 87.7514 143.943 89.2733 151.177L89.3449 151.513C89.6367 152.861 89.0763 155.323 88.6733 159.054L88.644 159.323C88.4791 160.814 88.2664 162.484 87.9752 164.603L86.8147 172.827C86.3763 175.972 86.0502 178.475 85.7677 180.925L85.6606 181.871C84.8111 189.531 84.5662 195.555 85.0582 200.448C85.485 204.693 87.974 210.765 90.9108 213.666C95.226 217.928 99.5148 215.909 103.395 207.095C105.13 203.156 106.202 199.458 106.714 195.699C107.399 190.673 107.118 185.549 105.924 178.637L105.8 177.934C104.983 173.454 101.414 156.945 100.988 154.85L100.85 154.184L99.9436 149.964C99.8855 149.688 99.8312 149.428 99.7787 149.172L99.6104 148.336C98.8598 144.526 98.5993 141.998 98.882 140.362C98.9087 140.207 99.0394 139.981 99.3063 139.693C99.7221 139.244 100.382 138.738 101.355 138.112L101.787 137.84C102.697 137.28 104.864 135.992 104.879 135.983L105.344 135.698C109.918 132.871 112.07 130.655 112.07 127.518C112.07 124.401 110.753 122.019 108.615 120.598C106.838 119.416 104.601 119.034 103.483 119.882ZM105.976 122.793L105.551 121.94L105.504 121.931C106.057 122.025 106.679 122.274 107.248 122.652C108.707 123.622 109.601 125.239 109.601 127.518C109.601 129.468 107.877 131.231 104.027 133.611L103.355 134.019C102.696 134.411 100.894 135.486 100.27 135.878L100.218 135.91C98.9779 136.696 98.1158 137.347 97.495 138.017C96.9305 138.626 96.5679 139.255 96.4491 139.942C96.0828 142.062 96.4029 144.949 97.2995 149.371L97.5274 150.471L98.3584 154.331L98.8247 156.565C99.7779 161.072 102.719 174.746 103.393 178.498L103.415 178.622C104.634 185.529 104.928 190.525 104.268 195.366C103.787 198.891 102.779 202.368 101.135 206.102C99.3603 210.134 97.5763 212.392 95.9352 213.085C94.7079 213.603 93.4779 213.218 92.1558 211.912C89.6677 209.454 87.3974 203.915 87.024 200.202C86.5528 195.516 86.7921 189.64 87.6247 182.135L87.7296 181.207C88.0218 178.674 88.3617 176.078 88.827 172.754L89.8402 165.592L90.0577 164.004C90.2744 162.397 90.4438 161.05 90.5817 159.823L90.6687 159.025C91.0623 155.289 91.127 152.766 90.7985 151.114L90.7732 150.992C89.2914 144.147 89.1343 139.707 90.9507 136.822C92.237 134.779 94.3367 133.695 98.1404 132.004L99.8352 131.261C102.688 129.999 104.234 129.129 105.771 127.759C106.907 126.746 107.009 125.412 106.456 123.893C106.331 123.548 106.184 123.216 105.976 122.793Z" fill="#232730"/>
<path d="M105.972 122.794L105.547 121.941L105.5 121.932C106.053 122.026 106.675 122.274 107.244 122.653C108.703 123.623 109.597 125.24 109.597 127.519C109.597 129.468 107.873 131.232 104.024 133.612L103.351 134.02C102.692 134.412 100.89 135.487 100.266 135.878L100.215 135.911C98.974 136.697 98.1119 137.348 97.4911 138.017C96.9266 138.626 96.564 139.255 96.4451 139.943C96.0789 142.063 96.399 144.95 97.2956 149.371L97.5235 150.472L98.3545 154.332L98.8208 156.566C99.774 161.072 102.715 174.746 103.389 178.498L103.411 178.622C104.63 185.53 104.924 190.526 104.264 195.367C103.783 198.892 102.775 202.369 101.131 206.103C99.3564 210.134 97.5724 212.393 95.9313 213.086C94.704 213.604 93.474 213.218 92.1519 211.912C89.6638 209.454 87.3935 203.916 87.0201 200.202C86.5489 195.517 86.7882 189.641 87.6208 182.135L87.7257 181.208C88.0178 178.674 88.3578 176.079 88.8231 172.755L89.8363 165.593L90.0538 164.005C90.2705 162.397 90.4399 161.051 90.5778 159.823L90.6648 159.025C91.0584 155.29 91.1231 152.766 90.7946 151.115L90.7693 150.992C89.2875 144.147 89.1304 139.708 90.9468 136.823C92.2331 134.78 94.3328 133.696 98.1365 132.004L99.8313 131.262C102.684 129.999 104.23 129.13 105.767 127.759C106.904 126.746 107.005 125.412 106.453 123.894C106.327 123.549 106.18 123.217 105.972 122.794Z" fill="white"/>
<path fill-rule="evenodd" clip-rule="evenodd" d="M97.9844 139.34C98.322 138.748 99.0763 138.541 99.6692 138.879C106.8 142.935 110.887 147.819 111.806 153.532C112.691 159.036 106.921 187.675 106.255 187.53C105.588 187.386 105.164 186.729 105.309 186.063L105.621 184.613C108.92 169.142 110.161 158.863 109.366 153.924C108.581 149.042 104.982 144.74 98.4464 141.023C97.8536 140.686 97.6467 139.932 97.9844 139.34Z" fill="#232730"/>
<path fill-rule="evenodd" clip-rule="evenodd" d="M100.918 122.834C101.492 122.465 102.256 122.632 102.625 123.205C103.26 124.193 103.641 124.997 103.76 125.683C103.877 126.36 103.798 127.267 103.55 128.475C103.413 129.142 102.76 129.572 102.091 129.435C101.778 129.371 101.518 129.194 101.343 128.956C101.144 128.684 102.313 127.979 102.313 126.104C102.313 124.229 100.344 123.202 100.918 122.834Z" fill="#232730"/>
<path fill-rule="evenodd" clip-rule="evenodd" d="M100.465 124.736C100.764 124.486 101.027 125.427 100.969 125.891C100.881 126.593 100.881 129.115 99.8874 130.306C99.4937 130.779 98.8503 131.175 98.2366 130.877C97.9652 130.746 98.8113 129.568 99.3252 128.237C99.6975 127.273 99.988 126.241 100.185 125.548C100.331 125.034 100.155 124.994 100.465 124.736Z" fill="#232730"/>
<path fill-rule="evenodd" clip-rule="evenodd" d="M175.406 189.022C176.088 189.039 176.627 189.605 176.61 190.286L176.584 191.301C176.132 207.74 174.87 217.733 172.678 221.564C170.823 224.806 164.595 225.906 156.7 225.373L153.858 225.167C149.998 224.878 147.845 224.668 145.769 224.347L145.486 224.303C142.147 223.77 139.943 223.034 138.708 221.838C134.15 217.424 131.734 207.645 131.272 192.412C131.251 191.731 131.788 191.162 132.469 191.142C133.151 191.121 133.721 191.656 133.742 192.337L133.77 193.209C134.277 207.336 136.555 216.316 140.428 220.066L140.521 220.152C141.948 221.414 145.485 222.039 153.69 222.678L156.605 222.893L157.112 222.927C163.926 223.353 169.368 222.376 170.533 220.34C172.48 216.937 173.725 206.798 174.14 190.224C174.158 189.543 174.724 189.005 175.406 189.022Z" fill="#232730"/>
<path fill-rule="evenodd" clip-rule="evenodd" d="M130.569 143.24C130.805 142.601 134.749 143.578 135.796 144.191C136.18 144.416 144.973 148.534 147.505 150.119C150.718 152.129 152.977 160.791 152.215 170.514C152.103 171.946 151.239 173.524 149.673 175.322C149.225 175.836 148.445 175.89 147.93 175.443C147.415 174.996 147.361 174.216 147.809 173.702C149.059 172.267 149.69 171.115 149.752 170.322L149.791 169.792C150.382 161.159 148.857 153.078 146.777 151.776L146.373 151.528C144.407 150.338 143.206 149.947 140.801 149.501C140.801 149.501 137.05 146.481 135.571 145.637C132.29 143.766 130.46 143.533 130.569 143.24Z" fill="#232730"/>
<path fill-rule="evenodd" clip-rule="evenodd" d="M163.787 133.046C164.271 133.526 154.036 142.296 153.49 142.788C151.815 144.296 150.777 147.721 151.203 152.158L151.227 152.402C151.314 153.231 151.607 156.582 151.619 157.052L151.651 157.742C151.666 157.983 151.689 158.238 151.734 158.677L151.974 160.888C152.378 164.552 152.485 167.117 152.218 170.516C152.106 171.948 151.242 173.525 149.676 175.323C149.228 175.838 148.448 175.892 147.933 175.445C147.418 174.997 150.621 170.655 150.683 169.862C150.925 166.772 149.258 158.755 149.258 158.755C149.187 158.053 149.178 157.825 149.153 157.241C149.121 156.491 149.193 155.903 149.41 154.835L149.581 154.013C149.756 153.14 149.804 152.699 149.765 152.238L149.758 152.165C149.464 149.36 149.63 147.087 150.192 145.258C150.698 143.612 151.526 142.325 152.63 141.33C153.115 140.893 153.608 140.549 154.196 140.204L154.892 139.808C154.979 139.757 155.035 139.721 155.069 139.696L155.171 139.619C156.137 138.871 163.303 132.565 163.787 133.046Z" fill="#232730"/>
<path fill-rule="evenodd" clip-rule="evenodd" d="M175.245 151.61C175.412 152.27 158.936 157.779 156.746 159.655C153.745 162.223 152.143 165.952 152.602 169.283L152.629 169.468C152.928 171.32 152.159 173.259 149.54 175.457C149.018 175.895 148.238 175.828 147.799 175.306C147.36 174.784 147.428 174.006 147.95 173.568C149.96 171.881 150.802 170.589 150.684 169.861C149.994 165.589 151.953 160.93 155.632 157.781C158.298 155.499 175.078 150.949 175.245 151.61Z" fill="#232730"/>
<path fill-rule="evenodd" clip-rule="evenodd" d="M124.816 139.91C130.265 138.695 134.992 138.695 138.992 139.936C143.283 141.266 145.524 144.285 145.524 148.74C145.524 148.978 145.456 149.201 145.339 149.39L145.284 149.47L145.325 149.532C145.393 149.641 145.444 149.763 145.475 149.894L145.491 149.973C145.606 150.645 145.154 151.282 144.481 151.397L143.846 151.503C137.358 152.564 133.111 152.55 130.908 151.335C128.669 150.1 126.409 146.881 123.966 141.634C123.633 140.92 124.047 140.081 124.816 139.91ZM138.261 142.292C135.123 141.319 131.401 141.206 127.089 141.97L126.887 142.007L126.931 142.096C128.839 145.918 130.569 148.27 132.014 149.123L132.104 149.174C133.557 149.976 137.02 150.033 142.33 149.242L143.115 149.121L143.096 149.055C143.076 148.979 143.063 148.901 143.058 148.821L143.055 148.74C143.055 145.369 141.521 143.303 138.261 142.292Z" fill="#232730"/>
<path fill-rule="evenodd" clip-rule="evenodd" d="M167.464 127.052C168.092 127.063 168.613 127.543 168.672 128.168C169.108 132.707 168.539 136.156 166.885 138.503C165.101 141.035 161.652 141.834 156.699 141.097C156.052 141.001 155.597 140.419 155.65 139.776L155.655 139.734L155.593 139.717C155.316 139.63 155.071 139.446 154.91 139.183L154.869 139.11C153.16 135.828 153.957 132.777 157.095 130.34C159.936 128.134 163.313 127.036 167.18 127.049L167.464 127.052ZM166.311 129.726L166.3 129.536L166.296 129.536C163.343 129.677 160.793 130.594 158.612 132.288C156.384 134.018 155.923 135.785 157.061 137.971C157.166 138.173 157.21 138.39 157.199 138.602L157.193 138.675L157.291 138.69C161.21 139.238 163.666 138.673 164.801 137.171L164.865 137.083C165.978 135.503 166.479 133.053 166.311 129.726Z" fill="#232730"/>
<path d="M63.2765 184.189C64.744 184.238 65.2952 185.879 64.4404 187.529C63.8487 188.67 62.4024 189.871 60.9084 190.577C60.0554 190.98 59.0667 191.032 57.9666 190.756C57.5696 190.656 57.3289 190.253 57.4289 189.857C57.5289 189.461 57.9317 189.22 58.3287 189.32C59.1148 189.518 58.5033 188.429 58.4583 188.023C58.4133 187.616 58.7067 187.251 59.1135 187.206C59.8591 187.123 60.2487 186.738 60.6272 186.479C60.7332 186.407 60.8716 186.262 61.066 186.019L61.2862 185.735L61.3623 185.634C62.1981 184.525 62.5256 184.188 63.2001 184.188L63.2765 184.189Z" fill="white"/>
<path fill-rule="evenodd" clip-rule="evenodd" d="M63.2765 184.189C64.744 184.238 65.2952 185.879 64.4404 187.529C63.8487 188.67 62.4024 189.871 60.9084 190.577C60.0554 190.98 59.0667 191.032 57.9666 190.756C57.5696 190.656 57.3289 190.253 57.4289 189.857C57.5289 189.461 57.9317 189.22 58.3287 189.32C59.1148 189.518 59.7553 189.484 60.2744 189.238C61.5001 188.659 62.7025 187.661 63.1239 186.848C63.3668 186.379 63.419 186.013 63.3453 185.793C63.3293 185.746 63.3123 185.715 63.2929 185.696L63.2736 185.681L63.2478 185.701C63.2263 185.718 63.2021 185.738 63.1756 185.763L63.134 185.804C63.0102 185.927 62.8973 186.063 62.6777 186.351L62.3815 186.742C62.0186 187.216 61.7655 187.495 61.4643 187.701C60.8627 188.112 60.2458 188.57 59.2765 188.677C58.8696 188.722 58.5033 188.429 58.4583 188.023C58.4133 187.616 58.7067 187.251 59.1135 187.206C59.8591 187.123 60.2487 186.738 60.6272 186.479C60.7332 186.407 60.8716 186.262 61.066 186.019L61.2862 185.735L61.3623 185.634C62.1981 184.525 62.5256 184.188 63.2001 184.188L63.2765 184.189Z" fill="#232730"/>
<path fill-rule="evenodd" clip-rule="evenodd" d="M63.807 187.487C64.7078 187.517 65.0383 188.306 64.9658 189.23C64.9118 189.92 64.6331 190.657 64.2107 191.128C63.6758 191.723 62.9291 192.235 61.9177 192.762L61.7119 192.868C61.3468 193.053 61.0944 193.172 60.4266 193.481C59.6074 193.86 58.5159 193.995 57.1433 193.911C56.7347 193.886 56.4237 193.535 56.4487 193.127C56.4736 192.719 56.8251 192.409 57.2337 192.434C58.3825 192.504 59.2423 192.397 59.804 192.137L60.5004 191.813C60.7035 191.716 60.8581 191.64 61.0414 191.548C62.0078 191.058 62.6877 190.606 63.1072 190.139C63.2795 189.947 63.4305 189.569 63.4777 189.212L63.488 189.115L63.4889 189.095L63.4313 189.129C63.2883 189.27 61.4897 190.351 61.2953 190.389C58.7645 190.892 59.2258 190.691 58.2565 190.798C57.8497 190.843 57.4833 190.55 57.4383 190.144C57.3933 189.737 57.6867 189.372 58.0935 189.327C58.3615 189.297 58.8653 189.775 59.4234 189.73C59.9005 189.693 61.0819 189.086 61.0819 189.086L61.5911 188.662C61.7172 188.557 61.8262 188.469 61.9313 188.385L62.1813 188.192C62.8261 187.708 63.3028 187.47 63.807 187.487Z" fill="#232730"/>
<path fill-rule="evenodd" clip-rule="evenodd" d="M61.2147 194.697C62.2196 194.331 63.0446 195.23 63.4311 196.088C63.8505 197.02 63.3358 197.841 62.3619 198.442C61.7019 198.85 60.8055 199.16 60.1364 199.236C59.1933 199.342 58.0721 199.027 56.7485 198.324C56.3872 198.132 56.2502 197.683 56.4425 197.322C56.6349 196.961 57.0838 196.825 57.4451 197.017C58.5285 197.593 59.3783 197.831 59.9701 197.765C60.4212 197.714 61.1083 197.476 61.5825 197.183C61.8185 197.037 62.826 196.088 61.7221 196.088C61.3055 196.088 60.8301 195.858 60.772 195.646C60.7139 195.434 60.8301 194.837 61.2147 194.697Z" fill="#232730"/>
<path fill-rule="evenodd" clip-rule="evenodd" d="M75.3287 179.057C75.4894 178.976 75.7316 179.117 75.7519 179.287L75.7526 179.324L75.6951 179.906L77.4057 179.056C77.4944 179.009 77.6366 179.039 77.7436 179.124L77.782 179.158C77.8796 179.255 77.8965 179.37 77.8271 179.432L77.7969 179.453L75.5266 180.534C75.3427 180.614 75.0874 180.473 75.0813 180.303L75.0837 180.266L74.9999 179.906L73.2606 180.533C73.0815 180.607 72.8607 180.494 72.8484 180.336L72.8493 180.298L72.8122 179.855L70.6812 180.534C70.4809 180.61 70.2767 180.483 70.308 180.318L70.3183 180.282L70.3476 179.855L68.6385 180.46C68.4411 180.536 68.2525 180.43 68.2808 180.273L68.2912 180.236L68.3885 179.795L66.8134 180.243C66.6275 180.307 66.468 180.221 66.4888 180.08L66.4979 180.044L66.6671 179.553L65.4046 179.855C65.2679 179.887 65.1595 179.839 65.1438 179.746L65.1426 179.709C65.1517 179.605 65.2565 179.496 65.3851 179.448L65.4342 179.433L67.0177 179.044C67.1764 179.004 67.2967 179.089 67.2804 179.218L67.2725 179.255L67.1365 179.694L68.8374 179.055C69.0148 178.986 69.1795 179.092 69.1579 179.247L69.1494 179.283L68.9558 179.871L70.8463 179.059C71.026 178.977 71.2223 179.104 71.2021 179.271L71.1943 179.307L70.9921 179.934L73.0884 179.055C73.2478 178.984 73.4493 179.097 73.4695 179.255L73.4708 179.292L73.4255 179.945L75.3287 179.057Z" fill="#FAB529"/>
<ellipse rx="5.10955" ry="1.43391" transform="matrix(0.987746 0.156069 -0.156448 0.987686 78.6371 104.458)" fill="#FAB529"/>
<path fill-rule="evenodd" clip-rule="evenodd" d="M38.139 137.281L39.0307 139.153L41.0314 139.705L39.5243 141.131L39.617 143.202L37.7939 142.211L35.8504 142.939L36.2307 140.901L34.937 139.28L36.9951 139.011L38.139 137.281Z" fill="#232730"/>
<path fill-rule="evenodd" clip-rule="evenodd" d="M52.5772 133.825L53.2215 135.255L54.6766 135.672L53.5757 136.766L53.6377 138.351L52.3131 137.597L50.8963 138.159L51.1785 136.599L50.2409 135.362L51.7399 135.151L52.5772 133.825Z" fill="#232730"/>
<path fill-rule="evenodd" clip-rule="evenodd" d="M62.46 163.436L63.1043 164.866L64.5594 165.283L63.4585 166.378L63.5205 167.962L62.1959 167.209L60.7792 167.771L61.0613 166.21L60.1237 164.973L61.6228 164.763L62.46 163.436Z" fill="#232730"/>
<path fill-rule="evenodd" clip-rule="evenodd" d="M105.45 153.567L106.095 154.997L107.55 155.414L106.449 156.509L106.511 158.093L105.186 157.339L103.769 157.901L104.052 156.341L103.114 155.104L104.613 154.893L105.45 153.567Z" fill="#232730"/>
<path fill-rule="evenodd" clip-rule="evenodd" d="M41.7081 200.944L42.3523 202.374L43.8074 202.791L42.7066 203.886L42.7686 205.47L41.4439 204.716L40.0272 205.278L40.3094 203.718L39.3718 202.481L40.8708 202.27L41.7081 200.944Z" fill="#232730"/>
<path fill-rule="evenodd" clip-rule="evenodd" d="M41.2482 213.775L42.0358 215.523L43.8145 216.033L42.4688 217.371L42.5446 219.308L40.9253 218.387L39.1935 219.074L39.5384 217.166L38.3923 215.654L40.2247 215.397L41.2482 213.775Z" fill="#232730"/>
<path fill-rule="evenodd" clip-rule="evenodd" d="M56.0724 206.373L56.86 208.121L58.6387 208.631L57.293 209.969L57.3688 211.905L55.7496 210.984L54.0177 211.671L54.3627 209.764L53.2165 208.252L55.0489 207.994L56.0724 206.373Z" fill="#232730"/>
<path fill-rule="evenodd" clip-rule="evenodd" d="M75.8361 200.451L76.6237 202.199L78.4024 202.709L77.0567 204.047L77.1325 205.984L75.5132 205.062L73.7814 205.749L74.1263 203.842L72.9802 202.33L74.8126 202.073L75.8361 200.451Z" fill="#232730"/>
<path fill-rule="evenodd" clip-rule="evenodd" d="M46.5394 158.996L47.4311 160.868L49.4318 161.42L47.9247 162.845L48.0174 164.916L46.1943 163.925L44.2508 164.653L44.6311 162.615L43.3374 160.994L45.3955 160.726L46.5394 158.996Z" fill="#232730"/>
<path fill-rule="evenodd" clip-rule="evenodd" d="M49.0101 145.178L49.9018 147.05L51.9025 147.602L50.3954 149.027L50.4881 151.098L48.665 150.107L46.7215 150.835L47.1018 148.797L45.8081 147.176L47.8662 146.907L49.0101 145.178Z" fill="#232730"/>
<path fill-rule="evenodd" clip-rule="evenodd" d="M71.2445 153.568L72.1362 155.44L74.1368 155.992L72.6298 157.418L72.7224 159.489L70.8993 158.498L68.9559 159.226L69.3362 157.188L68.0425 155.567L70.1006 155.298L71.2445 153.568Z" fill="#232730"/>
<path fill-rule="evenodd" clip-rule="evenodd" d="M84.0921 147.152L84.9838 149.024L86.9845 149.576L85.4775 151.002L85.5701 153.073L83.747 152.082L81.8035 152.81L82.1838 150.772L80.8901 149.151L82.9482 148.882L84.0921 147.152Z" fill="#232730"/>
<path fill-rule="evenodd" clip-rule="evenodd" d="M80.139 166.893L81.0307 168.765L83.0314 169.316L81.5243 170.742L81.617 172.813L79.7939 171.822L77.8504 172.55L78.2307 170.512L76.937 168.891L78.9951 168.622L80.139 166.893Z" fill="#232730"/>
<path fill-rule="evenodd" clip-rule="evenodd" d="M47.5257 173.309L48.4174 175.181L50.4181 175.733L48.9111 177.158L49.0037 179.229L47.1806 178.238L45.2371 178.966L45.6174 176.928L44.3237 175.307L46.3818 175.038L47.5257 173.309Z" fill="#232730"/>
<path fill-rule="evenodd" clip-rule="evenodd" d="M34.8068 151.594L35.6051 153.188L37.3862 153.663L36.0496 154.872L36.1376 156.634L34.5133 155.786L32.7866 156.4L33.1193 154.667L31.964 153.285L33.794 153.062L34.8068 151.594Z" fill="#232730"/>
<path fill-rule="evenodd" clip-rule="evenodd" d="M25.9123 161.957L26.7106 163.552L28.4917 164.027L27.1551 165.235L27.2431 166.997L25.6187 166.149L23.892 166.763L24.2247 165.031L23.0695 163.648L24.8995 163.425L25.9123 161.957Z" fill="#232730"/>
<path fill-rule="evenodd" clip-rule="evenodd" d="M90.7158 136.083C90.7398 136.764 90.1625 137.334 89.4804 137.317C86.0723 137.23 85.5305 131.377 85.8574 131.354C86.3099 131.321 87.083 134.101 88.6047 135.114C89.765 135.886 90.6493 134.207 90.7158 136.083Z" fill="#232730"/>
<path fill-rule="evenodd" clip-rule="evenodd" d="M165.496 148.209C173.531 145.532 180.445 145.432 186.199 147.964C187.259 148.431 187.151 149.966 186.036 150.281L185.612 150.403C183.958 150.892 182.803 151.374 182.182 151.811L182.057 151.903L182.006 151.942C181.537 152.308 181.036 152.785 180.379 153.482L178.39 155.637C178.297 155.736 178.217 155.821 178.154 155.887C175.482 158.692 173.16 160.331 170.162 161.046C166.057 162.025 161.701 161.549 157.123 159.644C156.755 159.491 156.501 159.182 156.405 158.825L156.403 158.816L156.338 158.787C155.895 158.573 155.61 158.108 155.643 157.598L155.651 157.517C156.203 153.28 159.566 150.184 165.496 148.209ZM181.664 149.077C177.254 148.117 172.131 148.599 166.276 150.549C161.485 152.146 158.861 154.38 158.207 157.236L158.17 157.407L158.358 157.484C162.27 159.06 165.921 159.459 169.337 158.703L169.587 158.646C171.952 158.082 173.874 156.757 176.154 154.403L176.469 154.073C177.006 153.502 178.272 152.117 178.428 151.951C179.238 151.084 179.858 150.486 180.484 149.997L180.62 149.893C180.937 149.655 181.323 149.424 181.778 149.2L181.915 149.133L181.664 149.077Z" fill="#232730"/>
<path fill-rule="evenodd" clip-rule="evenodd" d="M183.619 0.222262C184.179 -0.167806 184.949 -0.0310938 185.339 0.527616C185.73 1.08633 185.098 1.89011 184.539 2.28017C182.676 3.57943 178.187 7.82363 177.267 8.7957L176.384 9.73535C174.65 11.6009 153.988 33.0596 153.492 32.5919C153.037 32.1631 173.197 10.0222 174.709 8.40405L174.767 8.34301C176.196 6.82002 177.516 5.4469 178.779 4.17535C180.03 2.91653 181.643 1.6007 183.619 0.222262Z" fill="#232730"/>
</svg>
