<svg width="35" height="35" viewBox="0 0 35 35" fill="none" xmlns="http://www.w3.org/2000/svg">
<path d="M10.5012 6.5213L23.6308 1L26.1366 6.63032" stroke="#00CD6B" stroke-width="1.5" stroke-miterlimit="10"/>
<path d="M31.4517 26.6103V30.5721C31.4517 32.2406 30.0866 33.6058 28.4181 33.6058H4.03365C2.36514 33.6058 1 32.2406 1 30.5721V12.4733C1 10.8048 2.36514 9.4397 4.03365 9.4397H28.4181C30.0866 9.4397 31.4517 10.8048 31.4517 12.4733V16.3202" stroke="#00CD6B" stroke-width="1.5" stroke-miterlimit="10" stroke-linejoin="round"/>
<path d="M22.5813 21.5261C22.5813 21.787 22.3689 21.9993 22.108 21.9993C21.8471 21.9993 21.6348 21.787 21.6348 21.5261C21.6348 21.2653 21.8471 21.0527 22.108 21.0527C22.375 21.0527 22.5813 21.2653 22.5813 21.5261Z" fill="#475257" stroke="#00CD6B" stroke-width="1.5" stroke-miterlimit="10"/>
<path d="M20.6154 26.4765C18.9469 26.4765 17.5818 25.1114 17.5818 23.4429V19.6022C17.5818 17.9337 18.9469 16.5686 20.6154 16.5686H33.9999V26.4765H20.6154Z" stroke="#00CD6B" stroke-width="1.5" stroke-miterlimit="10" stroke-linecap="round" stroke-linejoin="round"/>
</svg>
