<svg width="22" height="16" viewBox="0 0 22 16" fill="none" xmlns="http://www.w3.org/2000/svg">
<rect width="22" height="16" rx="2" fill="white"/>
<mask id="mask0_52_9910" style="mask-type:alpha" maskUnits="userSpaceOnUse" x="0" y="0" width="22" height="16">
<rect width="22" height="16" rx="2" fill="white"/>
</mask>
<g mask="url(#mask0_52_9910)">
<path fill-rule="evenodd" clip-rule="evenodd" d="M22 0H0V1.06667H22V0ZM22 2.13333H0V3.2H22V2.13333ZM0 4.26667H22V5.33333H0V4.26667ZM22 6.4H0V7.46667H22V6.4ZM0 8.53333H22V9.6H0V8.53333ZM22 10.6667H0V11.7333H22V10.6667ZM0 12.8H22V13.8667H0V12.8ZM22 14.9333H0V16H22V14.9333Z" fill="#D02F44"/>
<rect width="9.42857" height="7.46667" fill="#46467F"/>
<g filter="url(#filter0_d_52_9910)">
<path fill-rule="evenodd" clip-rule="evenodd" d="M2.09547 1.60001C2.09547 1.89457 1.86095 2.13335 1.57166 2.13335C1.28237 2.13335 1.04785 1.89457 1.04785 1.60001C1.04785 1.30546 1.28237 1.06668 1.57166 1.06668C1.86095 1.06668 2.09547 1.30546 2.09547 1.60001ZM4.19071 1.60001C4.19071 1.89457 3.95619 2.13335 3.6669 2.13335C3.37761 2.13335 3.14309 1.89457 3.14309 1.60001C3.14309 1.30546 3.37761 1.06668 3.6669 1.06668C3.95619 1.06668 4.19071 1.30546 4.19071 1.60001ZM5.76214 2.13335C6.05143 2.13335 6.28595 1.89457 6.28595 1.60001C6.28595 1.30546 6.05143 1.06668 5.76214 1.06668C5.47285 1.06668 5.23833 1.30546 5.23833 1.60001C5.23833 1.89457 5.47285 2.13335 5.76214 2.13335ZM8.38119 1.60001C8.38119 1.89457 8.14667 2.13335 7.85738 2.13335C7.56808 2.13335 7.33357 1.89457 7.33357 1.60001C7.33357 1.30546 7.56808 1.06668 7.85738 1.06668C8.14667 1.06668 8.38119 1.30546 8.38119 1.60001ZM2.61928 3.20001C2.90857 3.20001 3.14309 2.96123 3.14309 2.66668C3.14309 2.37213 2.90857 2.13335 2.61928 2.13335C2.32999 2.13335 2.09547 2.37213 2.09547 2.66668C2.09547 2.96123 2.32999 3.20001 2.61928 3.20001ZM5.23833 2.66668C5.23833 2.96123 5.00381 3.20001 4.71452 3.20001C4.42523 3.20001 4.19071 2.96123 4.19071 2.66668C4.19071 2.37213 4.42523 2.13335 4.71452 2.13335C5.00381 2.13335 5.23833 2.37213 5.23833 2.66668ZM6.80976 3.20001C7.09905 3.20001 7.33357 2.96123 7.33357 2.66668C7.33357 2.37213 7.09905 2.13335 6.80976 2.13335C6.52046 2.13335 6.28595 2.37213 6.28595 2.66668C6.28595 2.96123 6.52046 3.20001 6.80976 3.20001ZM8.38119 3.73335C8.38119 4.0279 8.14667 4.26668 7.85738 4.26668C7.56808 4.26668 7.33357 4.0279 7.33357 3.73335C7.33357 3.4388 7.56808 3.20001 7.85738 3.20001C8.14667 3.20001 8.38119 3.4388 8.38119 3.73335ZM5.76214 4.26668C6.05143 4.26668 6.28595 4.0279 6.28595 3.73335C6.28595 3.4388 6.05143 3.20001 5.76214 3.20001C5.47285 3.20001 5.23833 3.4388 5.23833 3.73335C5.23833 4.0279 5.47285 4.26668 5.76214 4.26668ZM4.19071 3.73335C4.19071 4.0279 3.95619 4.26668 3.6669 4.26668C3.37761 4.26668 3.14309 4.0279 3.14309 3.73335C3.14309 3.4388 3.37761 3.20001 3.6669 3.20001C3.95619 3.20001 4.19071 3.4388 4.19071 3.73335ZM1.57166 4.26668C1.86095 4.26668 2.09547 4.0279 2.09547 3.73335C2.09547 3.4388 1.86095 3.20001 1.57166 3.20001C1.28237 3.20001 1.04785 3.4388 1.04785 3.73335C1.04785 4.0279 1.28237 4.26668 1.57166 4.26668ZM3.14309 4.80001C3.14309 5.09457 2.90857 5.33335 2.61928 5.33335C2.32999 5.33335 2.09547 5.09457 2.09547 4.80001C2.09547 4.50546 2.32999 4.26668 2.61928 4.26668C2.90857 4.26668 3.14309 4.50546 3.14309 4.80001ZM4.71452 5.33335C5.00381 5.33335 5.23833 5.09457 5.23833 4.80001C5.23833 4.50546 5.00381 4.26668 4.71452 4.26668C4.42523 4.26668 4.19071 4.50546 4.19071 4.80001C4.19071 5.09457 4.42523 5.33335 4.71452 5.33335ZM7.33357 4.80001C7.33357 5.09457 7.09905 5.33335 6.80976 5.33335C6.52046 5.33335 6.28595 5.09457 6.28595 4.80001C6.28595 4.50546 6.52046 4.26668 6.80976 4.26668C7.09905 4.26668 7.33357 4.50546 7.33357 4.80001ZM7.85738 6.40001C8.14667 6.40001 8.38119 6.16123 8.38119 5.86668C8.38119 5.57213 8.14667 5.33335 7.85738 5.33335C7.56808 5.33335 7.33357 5.57213 7.33357 5.86668C7.33357 6.16123 7.56808 6.40001 7.85738 6.40001ZM6.28595 5.86668C6.28595 6.16123 6.05143 6.40001 5.76214 6.40001C5.47285 6.40001 5.23833 6.16123 5.23833 5.86668C5.23833 5.57213 5.47285 5.33335 5.76214 5.33335C6.05143 5.33335 6.28595 5.57213 6.28595 5.86668ZM3.6669 6.40001C3.95619 6.40001 4.19071 6.16123 4.19071 5.86668C4.19071 5.57213 3.95619 5.33335 3.6669 5.33335C3.37761 5.33335 3.14309 5.57213 3.14309 5.86668C3.14309 6.16123 3.37761 6.40001 3.6669 6.40001ZM2.09547 5.86668C2.09547 6.16123 1.86095 6.40001 1.57166 6.40001C1.28237 6.40001 1.04785 6.16123 1.04785 5.86668C1.04785 5.57213 1.28237 5.33335 1.57166 5.33335C1.86095 5.33335 2.09547 5.57213 2.09547 5.86668Z" fill="url(#paint0_linear_52_9910)"/>
</g>
</g>
<defs>
<filter id="filter0_d_52_9910" x="1.04785" y="1.06668" width="7.3335" height="6.33334" filterUnits="userSpaceOnUse" color-interpolation-filters="sRGB">
<feFlood flood-opacity="0" result="BackgroundImageFix"/>
<feColorMatrix in="SourceAlpha" type="matrix" values="0 0 0 0 0 0 0 0 0 0 0 0 0 0 0 0 0 0 127 0" result="hardAlpha"/>
<feOffset dy="1"/>
<feColorMatrix type="matrix" values="0 0 0 0 0 0 0 0 0 0 0 0 0 0 0 0 0 0 0.06 0"/>
<feBlend mode="normal" in2="BackgroundImageFix" result="effect1_dropShadow_52_9910"/>
<feBlend mode="normal" in="SourceGraphic" in2="effect1_dropShadow_52_9910" result="shape"/>
</filter>
<linearGradient id="paint0_linear_52_9910" x1="1.04785" y1="1.06668" x2="1.04785" y2="6.40001" gradientUnits="userSpaceOnUse">
<stop stop-color="white"/>
<stop offset="1" stop-color="#F0F0F0"/>
</linearGradient>
</defs>
</svg>
