<svg width="20" height="20" viewBox="0 0 20 20" fill="none" xmlns="http://www.w3.org/2000/svg">
<circle cx="10" cy="10" r="10" fill="url(#paint0_radial_908_2439)"/>
<rect x="5" y="5" width="10" height="10" rx="2.8125" stroke="white" stroke-width="0.9375"/>
<path d="M12.1875 10C12.1875 11.2081 11.2081 12.1875 10 12.1875C8.79188 12.1875 7.8125 11.2081 7.8125 10C7.8125 8.79188 8.79188 7.8125 10 7.8125C11.2081 7.8125 12.1875 8.79188 12.1875 10Z" stroke="white" stroke-width="0.9375"/>
<path d="M13.4375 7.1875C13.4375 7.53268 13.1577 7.8125 12.8125 7.8125C12.4673 7.8125 12.1875 7.53268 12.1875 7.1875C12.1875 6.84232 12.4673 6.5625 12.8125 6.5625C13.1577 6.5625 13.4375 6.84232 13.4375 7.1875Z" fill="white"/>
<defs>
<radialGradient id="paint0_radial_908_2439" cx="0" cy="0" r="1" gradientUnits="userSpaceOnUse" gradientTransform="translate(4.5 22) rotate(-86.3861) scale(23.7973)">
<stop stop-color="#FFDD8D"/>
<stop offset="0.298775" stop-color="#F6640E"/>
<stop offset="0.420574" stop-color="#F13560"/>
<stop offset="0.730938" stop-color="#BA03A7"/>
<stop offset="1" stop-color="#364CEE"/>
</radialGradient>
</defs>
</svg>