<svg width="20" height="20" viewBox="0 0 20 20" fill="none" xmlns="http://www.w3.org/2000/svg">
<circle cx="10" cy="10" r="10" fill="#0A66C2"/>
<path d="M5.15048 14.9942H7.25222V8.3317H5.15048V14.9942Z" fill="white"/>
<path d="M5.53123 7.20213C5.7288 7.33532 5.96148 7.40709 6.19989 7.40844C6.35947 7.41171 6.51811 7.38287 6.6663 7.32365C6.81449 7.26445 6.94921 7.17606 7.06247 7.06378C7.1757 6.95149 7.26513 6.81761 7.3254 6.67009C7.38571 6.52259 7.4156 6.36445 7.41337 6.20517C7.41353 5.96725 7.3431 5.7346 7.21093 5.53659C7.07874 5.33857 6.89075 5.18407 6.67068 5.0926C6.4506 5.00111 6.20831 4.97672 5.97436 5.02253C5.74041 5.06835 5.52529 5.18228 5.35616 5.34997C5.18705 5.51769 5.07148 5.7316 5.02409 5.96478C4.97669 6.19797 4.99956 6.43994 5.08981 6.66014C5.18009 6.88035 5.33367 7.06894 5.53123 7.20213Z" fill="white"/>
<path d="M12.8983 15H14.999L15 10.8787C15 8.84422 13.7332 8.14956 12.5604 8.14956C11.4761 8.14956 10.7655 8.85001 10.5626 9.25983H10.5354V8.33656H8.51422V15H10.616V11.3873C10.616 10.4243 11.2276 9.95544 11.8508 9.95544C12.441 9.95544 12.8983 10.2868 12.8983 11.3602V15Z" fill="white"/>
</svg>