<svg width="20" height="20" viewBox="0 0 20 20" fill="none" xmlns="http://www.w3.org/2000/svg">
<circle cx="10" cy="10" r="10" fill="#2AAAEC"/>
<path fill-rule="evenodd" clip-rule="evenodd" d="M4.46479 9.30493C7.14914 7.8937 8.93913 6.96333 9.83475 6.51383C12.3919 5.23039 12.9233 5.00744 13.2696 5.00008C13.3458 4.99846 13.5161 5.02124 13.6264 5.12926C13.7196 5.22047 13.7452 5.34368 13.7575 5.43016C13.7698 5.51664 13.785 5.71364 13.7729 5.86757C13.6343 7.6245 13.0347 11.8881 12.7297 13.8559C12.6006 14.6885 12.3464 14.9677 12.1004 14.995C11.5656 15.0544 11.1596 14.5686 10.6417 14.159C9.83125 13.5179 9.3734 13.1189 8.58674 12.4933C7.67761 11.7704 8.26696 11.3731 8.78507 10.7237C8.92066 10.5538 11.2767 7.96792 11.3223 7.73334C11.328 7.704 11.3333 7.59464 11.2795 7.5369C11.2256 7.47915 11.1462 7.4989 11.0888 7.5146C11.0075 7.53687 9.71285 8.56945 7.20478 10.6124C6.83729 10.9169 6.50443 11.0652 6.20619 11.0574C5.87742 11.0489 5.24498 10.8331 4.77483 10.6487C4.19817 10.4225 3.73986 10.3029 3.77977 9.91881C3.80055 9.71872 4.0289 9.5141 4.46479 9.30493Z" fill="white"/>
</svg>