<svg width="22" height="16" viewBox="0 0 22 16" fill="none" xmlns="http://www.w3.org/2000/svg">
<rect x="0.25" y="0.25" width="21.5" height="15.5" rx="1.75" fill="white" stroke="#F5F5F5" stroke-width="0.5"/>
<mask id="mask0_130_1858" style="mask-type:alpha" maskUnits="userSpaceOnUse" x="0" y="0" width="22" height="16">
<rect x="0.25" y="0.25" width="21.5" height="15.5" rx="1.75" fill="white" stroke="white" stroke-width="0.5"/>
</mask>
<g mask="url(#mask0_130_1858)">
<path fill-rule="evenodd" clip-rule="evenodd" d="M0 5.33333H22V0H0V5.33333Z" fill="#04AAC8"/>
<path fill-rule="evenodd" clip-rule="evenodd" d="M0 16H22V10.6667H0V16Z" fill="#23C840"/>
<path fill-rule="evenodd" clip-rule="evenodd" d="M3.66664 4.26668C3.98979 4.26668 4.29016 4.16737 4.53991 3.99708C4.51097 3.99903 4.48178 4.00001 4.45236 4.00001C3.72913 4.00001 3.14283 3.40306 3.14283 2.66668C3.14283 1.9303 3.72913 1.33335 4.45236 1.33335C4.48178 1.33335 4.51097 1.33434 4.53991 1.33628C4.29016 1.16599 3.98979 1.06668 3.66664 1.06668C2.79877 1.06668 2.09521 1.78303 2.09521 2.66668C2.09521 3.55034 2.79877 4.26668 3.66664 4.26668ZM6.28569 3.73335C6.28569 4.0279 6.05117 4.26668 5.76188 4.26668C5.47259 4.26668 5.23807 4.0279 5.23807 3.73335C5.23807 3.4388 5.47259 3.20001 5.76188 3.20001C6.05117 3.20001 6.28569 3.4388 6.28569 3.73335ZM7.85712 2.13335C8.14641 2.13335 8.38093 1.89457 8.38093 1.60001C8.38093 1.30546 8.14641 1.06668 7.85712 1.06668C7.56783 1.06668 7.33331 1.30546 7.33331 1.60001C7.33331 1.89457 7.56783 2.13335 7.85712 2.13335ZM10.4762 1.60001C10.4762 1.89457 10.2416 2.13335 9.95236 2.13335C9.66307 2.13335 9.42855 1.89457 9.42855 1.60001C9.42855 1.30546 9.66307 1.06668 9.95236 1.06668C10.2416 1.06668 10.4762 1.30546 10.4762 1.60001ZM9.95236 4.26668C10.2416 4.26668 10.4762 4.0279 10.4762 3.73335C10.4762 3.4388 10.2416 3.20001 9.95236 3.20001C9.66307 3.20001 9.42855 3.4388 9.42855 3.73335C9.42855 4.0279 9.66307 4.26668 9.95236 4.26668ZM8.38093 3.73335C8.38093 4.0279 8.14641 4.26668 7.85712 4.26668C7.56783 4.26668 7.33331 4.0279 7.33331 3.73335C7.33331 3.4388 7.56783 3.20001 7.85712 3.20001C8.14641 3.20001 8.38093 3.4388 8.38093 3.73335Z" fill="white"/>
</g>
</svg>
