<svg width="22" height="22" viewBox="0 0 22 22" fill="none" xmlns="http://www.w3.org/2000/svg">
<path d="M20.9054 11.9135C20.9174 12.0516 20.9006 12.1906 20.856 12.3218C20.8114 12.4531 20.74 12.5736 20.6463 12.6757C20.5527 12.7779 20.4388 12.8595 20.3119 12.9153C20.1851 12.9711 20.048 13 19.9094 13H17.9999C17.7347 13 17.4804 12.8946 17.2928 12.7071C17.1053 12.5196 16.9999 12.2652 16.9999 12V2.5C16.9999 2.23479 17.1053 1.98043 17.2928 1.7929C17.4804 1.60536 17.7347 1.5 17.9999 1.5H19.0829C19.3332 1.49994 19.5744 1.59374 19.7589 1.76287C19.9434 1.93199 20.0578 2.16416 20.0794 2.4135L20.9054 11.9135V11.9135ZM13.9999 12.3125C13.9999 12.7305 13.7399 13.1045 13.3624 13.2825C12.5379 13.6715 11.1334 14.453 10.4999 15.5095C9.68343 16.8715 9.52943 19.332 9.50443 19.8955C9.50093 19.9745 9.50293 20.0535 9.49243 20.1315C9.35693 21.108 7.47243 19.9675 6.74993 18.7615C6.35743 18.1075 6.30743 17.248 6.34843 16.5765C6.39293 15.8585 6.60343 15.165 6.80993 14.476L7.24993 13.0075H1.82143C1.66693 13.0075 1.51452 12.9717 1.37618 12.9029C1.23783 12.8342 1.1173 12.7342 1.02405 12.6111C0.930798 12.4879 0.867359 12.3447 0.838711 12.1929C0.810062 12.0411 0.816983 11.8847 0.858931 11.736L3.54393 2.228C3.6032 2.01831 3.72935 1.83371 3.90318 1.7023C4.07702 1.57088 4.28902 1.49985 4.50693 1.5H12.9999C13.2651 1.5 13.5195 1.60536 13.707 1.7929C13.8946 1.98043 13.9999 2.23479 13.9999 2.5V12.3125Z" stroke="#A8A8A8" stroke-width="1.4" stroke-linecap="round" stroke-linejoin="round"/>
</svg>
