<svg width="22" height="22" viewBox="0 0 22 22" fill="none" xmlns="http://www.w3.org/2000/svg">
<path d="M1.09457 10.0865C1.08258 9.94842 1.09942 9.80937 1.14403 9.67815C1.18863 9.54693 1.26003 9.42642 1.35368 9.32426C1.44733 9.2221 1.5612 9.14052 1.68805 9.0847C1.8149 9.02888 1.95198 9.00003 2.09057 9H4.00007C4.26528 9 4.51964 9.10535 4.70718 9.29289C4.89471 9.48043 5.00007 9.73478 5.00007 10V19.5C5.00007 19.7652 4.89471 20.0196 4.70718 20.2071C4.51964 20.3946 4.26528 20.5 4.00007 20.5H2.91707C2.66678 20.5001 2.42557 20.4063 2.24108 20.2371C2.05658 20.068 1.94222 19.8358 1.92057 19.5865L1.09457 10.0865V10.0865ZM8.00007 9.6875C8.00007 9.2695 8.26007 8.8955 8.63757 8.7175C9.46207 8.3285 10.8666 7.547 11.5001 6.4905C12.3166 5.1285 12.4706 2.668 12.4956 2.1045C12.4991 2.0255 12.4971 1.9465 12.5076 1.8685C12.6431 0.891997 14.5276 2.0325 15.2501 3.2385C15.6426 3.8925 15.6926 4.752 15.6516 5.4235C15.6071 6.1415 15.3966 6.835 15.1901 7.524L14.7501 8.9925H20.1786C20.3331 8.99249 20.4855 9.02828 20.6238 9.09706C20.7622 9.16585 20.8827 9.26575 20.976 9.38894C21.0692 9.51213 21.1326 9.65525 21.1613 9.80708C21.1899 9.9589 21.183 10.1153 21.1411 10.264L18.4561 19.772C18.3968 19.9817 18.2706 20.1663 18.0968 20.2977C17.923 20.4291 17.711 20.5001 17.4931 20.5H9.00007C8.73485 20.5 8.4805 20.3946 8.29296 20.2071C8.10543 20.0196 8.00007 19.7652 8.00007 19.5V9.6875Z" stroke="#A8A8A8" stroke-width="1.4" stroke-linecap="round" stroke-linejoin="round"/>
</svg>
